{
    "asset" : {
        "generator" : "Khronos glTF Blender I/O v1.6.16",
        "version" : "2.0"
    },
    "scene" : 0,
    "scenes" : [
        {
            "name" : "Scene",
            "nodes" : [
                5,
                6,
                7
            ]
        }
    ],
    "nodes" : [
        {
            "mesh" : 0,
            "name" : "Mesh_0"
        },
        {
            "mesh" : 1,
            "name" : "Mesh_1"
        },
        {
            "mesh" : 2,
            "name" : "Mesh_4"
        },
        {
            "children" : [
                0,
                1,
                2
            ],
            "name" : "Ring.obj.cleaner.materialmerger.gles"
        },
        {
            "children" : [
                3
            ],
            "name" : "RootNode (model correction matrix)"
        },
        {
            "children" : [
                4
            ],
            "name" : "RootNode (gltf orientation matrix)",
            "rotation" : [
                -0.7071068286895752,
                0,
                0,
                0.7071068286895752
            ]
        },
        {
            "name" : "Light",
            "rotation" : [
                0.16907575726509094,
                0.7558803558349609,
                -0.27217137813568115,
                0.570947527885437
            ],
            "translation" : [
                4.076245307922363,
                5.903861999511719,
                -1.0054539442062378
            ]
        },
        {
            "name" : "Camera",
            "rotation" : [
                0.483536034822464,
                0.33687159419059753,
                -0.20870360732078552,
                0.7804827094078064
            ],
            "translation" : [
                7.358891487121582,
                4.958309173583984,
                6.925790786743164
            ]
        }
    ],
    "materials" : [
        {
            "doubleSided" : true,
            "name" : "Band",
            "pbrMetallicRoughness" : {
                "baseColorFactor" : [
                    0.6399999856948853,
                    0.6399999856948853,
                    0.6399999856948853,
                    1
                ],
                "roughnessFactor" : 0.18121188879013062
            }
        },
        {
            "doubleSided" : true,
            "name" : "Front",
            "pbrMetallicRoughness" : {
                "baseColorFactor" : [
                    0.6399999856948853,
                    0.6399999856948853,
                    0.6399999856948853,
                    1
                ],
                "roughnessFactor" : 0.2421875
            }
        },
        {
            "doubleSided" : true,
            "name" : "Stone",
            "pbrMetallicRoughness" : {
                "baseColorTexture" : {
                    "index" : 0
                },
                "metallicFactor" : 0.23951981961727142,
                "metallicRoughnessTexture" : {
                    "index" : 1
                },
                "roughnessFactor" : 0
            }
        }
    ],
    "meshes" : [
        {
            "name" : "Mesh_0",
            "primitives" : [
                {
                    "attributes" : {
                        "POSITION" : 0,
                        "NORMAL" : 1
                    },
                    "indices" : 2,
                    "material" : 0
                }
            ]
        },
        {
            "name" : "Mesh_1",
            "primitives" : [
                {
                    "attributes" : {
                        "POSITION" : 3,
                        "NORMAL" : 4
                    },
                    "indices" : 5,
                    "material" : 1
                }
            ]
        },
        {
            "name" : "Mesh_4",
            "primitives" : [
                {
                    "attributes" : {
                        "POSITION" : 6,
                        "NORMAL" : 7,
                        "TEXCOORD_0" : 8
                    },
                    "indices" : 9,
                    "material" : 2
                }
            ]
        }
    ],
    "textures" : [
        {
            "sampler" : 0,
            "source" : 0
        },
        {
            "sampler" : 0,
            "source" : 1
        }
    ],
    "images" : [
        {
            "bufferView" : 10,
            "mimeType" : "image/jpeg",
            "name" : "Stone_baseColor"
        },
        {
            "bufferView" : 11,
            "mimeType" : "image/png",
            "name" : "Stone_metallicRoughness"
        }
    ],
    "accessors" : [
        {
            "bufferView" : 0,
            "componentType" : 5126,
            "count" : 14336,
            "max" : [
                1.0351029634475708,
                2.112957000732422,
                0.02555599994957447
            ],
            "min" : [
                -1.0058549642562866,
                0.10336499661207199,
                -0.6953610181808472
            ],
            "type" : "VEC3"
        },
        {
            "bufferView" : 1,
            "componentType" : 5126,
            "count" : 14336,
            "type" : "VEC3"
        },
        {
            "bufferView" : 2,
            "componentType" : 5123,
            "count" : 86016,
            "type" : "SCALAR"
        },
        {
            "bufferView" : 3,
            "componentType" : 5126,
            "count" : 17025,
            "max" : [
                0.5123080015182495,
                0.2610569894313812,
                0.6010220050811768
            ],
            "min" : [
                -0.4841409921646118,
                -0.1319500058889389,
                -0.7781299948692322
            ],
            "type" : "VEC3"
        },
        {
            "bufferView" : 4,
            "componentType" : 5126,
            "count" : 17025,
            "type" : "VEC3"
        },
        {
            "bufferView" : 5,
            "componentType" : 5123,
            "count" : 101376,
            "type" : "SCALAR"
        },
        {
            "bufferView" : 6,
            "componentType" : 5126,
            "count" : 16001,
            "max" : [
                0.3645539879798889,
                0.16875499486923218,
                0.39572399854660034
            ],
            "min" : [
                -0.3363870084285736,
                -0.20918899774551392,
                -0.5690900087356567
            ],
            "type" : "VEC3"
        },
        {
            "bufferView" : 7,
            "componentType" : 5126,
            "count" : 16001,
            "type" : "VEC3"
        },
        {
            "bufferView" : 8,
            "componentType" : 5126,
            "count" : 16001,
            "type" : "VEC2"
        },
        {
            "bufferView" : 9,
            "componentType" : 5123,
            "count" : 95232,
            "type" : "SCALAR"
        }
    ],
    "bufferViews" : [
        {
            "buffer" : 0,
            "byteLength" : 172032,
            "byteOffset" : 0
        },
        {
            "buffer" : 0,
            "byteLength" : 172032,
            "byteOffset" : 172032
        },
        {
            "buffer" : 0,
            "byteLength" : 172032,
            "byteOffset" : 344064
        },
        {
            "buffer" : 0,
            "byteLength" : 204300,
            "byteOffset" : 516096
        },
        {
            "buffer" : 0,
            "byteLength" : 204300,
            "byteOffset" : 720396
        },
        {
            "buffer" : 0,
            "byteLength" : 202752,
            "byteOffset" : 924696
        },
        {
            "buffer" : 0,
            "byteLength" : 192012,
            "byteOffset" : 1127448
        },
        {
            "buffer" : 0,
            "byteLength" : 192012,
            "byteOffset" : 1319460
        },
        {
            "buffer" : 0,
            "byteLength" : 128008,
            "byteOffset" : 1511472
        },
        {
            "buffer" : 0,
            "byteLength" : 190464,
            "byteOffset" : 1639480
        },
        {
            "buffer" : 0,
            "byteLength" : 178927,
            "byteOffset" : 1829944
        },
        {
            "buffer" : 0,
            "byteLength" : 142364,
            "byteOffset" : 2008872
        }
    ],
    "samplers" : [
        {
            "magFilter" : 9729,
            "minFilter" : 9987
        }
    ],
    "buffers" : [
        {
            "byteLength" : 2151236,
            "uri" : "data:application/octet-stream;base64,"
        }
    ]
}
