<svg xmlns="http://www.w3.org/2000/svg" xmlns:xlink="http://www.w3.org/1999/xlink" width="600" height="600" viewBox="0 0 600 600">
  <defs>
    <clipPath id="clip-dycovid_2x">
      <rect width="600" height="600"/>
    </clipPath>
  </defs>
  <g id="dycovid_2x" data-name="dycovid@2x" clip-path="url(#clip-dycovid_2x)">
    <rect width="600" height="600" fill="#7f72cd"/>
    <g id="Group_8172" data-name="Group 8172" transform="translate(86.887 236.539)">
      <g id="Group_2658" data-name="Group 2658" transform="translate(15.176 0.885)">
        <g id="Group_2576" data-name="Group 2576" transform="translate(0)">
          <g id="Group_190" data-name="Group 190" transform="translate(0)">
            <path id="Path_7859" data-name="Path 7859" d="M45.457-47.956a26.638,26.638,0,0,1-2.612,2.272,21.339,21.339,0,0,1-3.186,2.017,19.273,19.273,0,0,1-3.7,1.444,15.476,15.476,0,0,1-4.184.552,25.853,25.853,0,0,1-10.64-2.166,25.463,25.463,0,0,1-8.367-5.925A27.3,27.3,0,0,1,7.3-58.617,30.064,30.064,0,0,1,5.32-69.575,30.014,30.014,0,0,1,7.3-80.555a27.351,27.351,0,0,1,5.479-8.835,25.2,25.2,0,0,1,8.367-5.9,26.073,26.073,0,0,1,10.64-2.145,20.923,20.923,0,0,1,4.269.4,15.385,15.385,0,0,1,3.525,1.168,15.449,15.449,0,0,1,2.931,1.826A23.072,23.072,0,0,1,45.033-91.7v-17.712a3.334,3.334,0,0,1,.828-2.294,3.148,3.148,0,0,1,2.485-.934H57.9a3.3,3.3,0,0,1,1.168.234,3.914,3.914,0,0,1,1.126.658,3.407,3.407,0,0,1,.828,1.019,2.744,2.744,0,0,1,.319,1.317v63.5q0,3.271-3.44,3.271H49.577a3.269,3.269,0,0,1-1.317-.212,2.089,2.089,0,0,1-.786-.616,4.286,4.286,0,0,1-.573-1.019q-.255-.616-.637-1.423ZM20.61-69.575a15.507,15.507,0,0,0,.871,5.245A12.448,12.448,0,0,0,23.966-60.1a11.8,11.8,0,0,0,3.886,2.825,11.945,11.945,0,0,0,5.033,1.041A13.443,13.443,0,0,0,38-57.216a13.045,13.045,0,0,0,4.184-2.7,13.411,13.411,0,0,0,2.867-4.056,13.3,13.3,0,0,0,1.211-5.012v-.595a13.42,13.42,0,0,0-1.019-5.182,13.728,13.728,0,0,0-2.825-4.332,13.383,13.383,0,0,0-4.247-2.952,12.9,12.9,0,0,0-5.288-1.083,11.548,11.548,0,0,0-5.033,1.083,11.756,11.756,0,0,0-3.886,2.952,13.374,13.374,0,0,0-2.485,4.332A15.434,15.434,0,0,0,20.61-69.575ZM67.671-92.511a3.318,3.318,0,0,1-.021-2.909q.658-1.21,2.909-1.211H81.05a2.4,2.4,0,0,1,1.741.658,4.119,4.119,0,0,1,1.019,1.635l12.02,34.191L107.6-94.337a3.416,3.416,0,0,1,1.189-1.826,3.654,3.654,0,0,1,2-.467H121.7a4.486,4.486,0,0,1,1.869.319,1.962,1.962,0,0,1,.956.849,1.972,1.972,0,0,1,.191,1.189,5.3,5.3,0,0,1-.34,1.3q-1.614,3.993-3.525,8.728T116.877-74.4q-2.06,5.118-4.184,10.406t-4.141,10.385q-2.018,5.1-3.886,9.79t-3.419,8.622q-1.55,3.929-2.7,6.9T96.808-23.7l.127-.212a3.694,3.694,0,0,1-1.062,1.848,2.665,2.665,0,0,1-1.869.7H84.193a3.554,3.554,0,0,1-2.612-.743,3.077,3.077,0,0,1-.7-2.187,1.945,1.945,0,0,1,.149-.849,1.686,1.686,0,0,1,.234-.382L87.931-42.86ZM161.58-59.254a2.982,2.982,0,0,1,1.126-.531,4.524,4.524,0,0,1,.828-.106,2.9,2.9,0,0,1,1.317.3,3.536,3.536,0,0,1,1.232,1.274l4.757,7.178a6.413,6.413,0,0,1,.4.764,1.782,1.782,0,0,1,.191.68,2.155,2.155,0,0,1-.616,1.593,8.146,8.146,0,0,1-1.338,1.083,31.972,31.972,0,0,1-7.624,3.886,26.1,26.1,0,0,1-8.771,1.465,27.622,27.622,0,0,1-7.369-.977,27.066,27.066,0,0,1-6.6-2.782,28.541,28.541,0,0,1-5.607-4.332,26.515,26.515,0,0,1-4.332-5.628,28.853,28.853,0,0,1-2.782-6.689,27.851,27.851,0,0,1-1-7.5,28.082,28.082,0,0,1,1-7.518,28.352,28.352,0,0,1,2.782-6.69,26.756,26.756,0,0,1,4.332-5.606,27.9,27.9,0,0,1,5.607-4.311,27.578,27.578,0,0,1,6.6-2.761,27.624,27.624,0,0,1,7.369-.977,28.477,28.477,0,0,1,8.558,1.232,26.531,26.531,0,0,1,7.369,3.653l-.127-.127a4.96,4.96,0,0,1,1.487,1.3,3.012,3.012,0,0,1,.552,1.848,2.942,2.942,0,0,1-.51,1.571l-3.78,6.413q-1.189,2.081-2.888,2.081a2.953,2.953,0,0,1-.934-.191,5.3,5.3,0,0,1-1.232-.658,19.381,19.381,0,0,0-4.014-2.017A13.167,13.167,0,0,0,153-83.124a11.214,11.214,0,0,0-4.927,1.083,11.593,11.593,0,0,0-3.844,2.952,13.909,13.909,0,0,0-2.485,4.332,15.1,15.1,0,0,0-.892,5.182,15.174,15.174,0,0,0,.892,5.245A12.923,12.923,0,0,0,144.23-60.1a11.628,11.628,0,0,0,3.844,2.825A11.6,11.6,0,0,0,153-56.239a12.122,12.122,0,0,0,4.545-.849A20.54,20.54,0,0,0,161.58-59.254Zm87.411-33.129a3.519,3.519,0,0,1-.319-2.973q.531-1.232,2.527-1.232h10.873a3.227,3.227,0,0,1,1.933.595,3.158,3.158,0,0,1,1.168,1.7q.722,2.251,1.593,5.054t1.826,5.755q.956,2.952,1.89,5.861t1.72,5.352q.786,2.442,1.4,4.247t.913,2.57l9-28.839a3.907,3.907,0,0,1,1.253-1.826,3.542,3.542,0,0,1,1.975-.467H297.92a4.582,4.582,0,0,1,1.869.3,1.586,1.586,0,0,1,.849.807,2,2,0,0,1,.085,1.168,7.272,7.272,0,0,1-.425,1.38L280.081-44.474a5.193,5.193,0,0,1-1.1,1.3,2.932,2.932,0,0,1-1.911.531h-5.054a4.372,4.372,0,0,1-2.4-.488,2.9,2.9,0,0,1-1.041-1.338Zm56.065-.892a3.677,3.677,0,0,1,.764-2.336,2.834,2.834,0,0,1,2.379-.977h9.726a3.036,3.036,0,0,1,1.1.234,3.753,3.753,0,0,1,1.1.68A4.418,4.418,0,0,1,321-94.635a2.566,2.566,0,0,1,.361,1.359v47.358a3.171,3.171,0,0,1-.892,2.442,3.609,3.609,0,0,1-2.548.828H308.2q-3.143,0-3.143-3.271Zm0-21.492a3.436,3.436,0,0,1,.764-2.527,3.3,3.3,0,0,1,2.379-.743h9.854a3.683,3.683,0,0,1,2.4.743,3.088,3.088,0,0,1,.913,2.527v8.282a3.035,3.035,0,0,1-.234,1.1,4.694,4.694,0,0,1-.658,1.147,3.587,3.587,0,0,1-1.041.913,2.678,2.678,0,0,1-1.38.361H308.2q-3.143,0-3.143-3.525ZM368.3-47.956a26.62,26.62,0,0,1-2.612,2.272,21.338,21.338,0,0,1-3.186,2.017,19.27,19.27,0,0,1-3.7,1.444,15.476,15.476,0,0,1-4.184.552,25.852,25.852,0,0,1-10.64-2.166,25.463,25.463,0,0,1-8.367-5.925,27.3,27.3,0,0,1-5.479-8.856,30.063,30.063,0,0,1-1.975-10.958,30.014,30.014,0,0,1,1.975-10.979,27.354,27.354,0,0,1,5.479-8.835,25.2,25.2,0,0,1,8.367-5.9,26.073,26.073,0,0,1,10.64-2.145,20.922,20.922,0,0,1,4.269.4,15.385,15.385,0,0,1,3.525,1.168,15.449,15.449,0,0,1,2.931,1.826,23.074,23.074,0,0,1,2.527,2.336v-17.712a3.334,3.334,0,0,1,.828-2.294,3.148,3.148,0,0,1,2.485-.934h9.556a3.3,3.3,0,0,1,1.168.234,3.914,3.914,0,0,1,1.126.658,3.407,3.407,0,0,1,.828,1.019,2.744,2.744,0,0,1,.319,1.317v63.5q0,3.271-3.44,3.271h-8.325a3.27,3.27,0,0,1-1.317-.212,2.089,2.089,0,0,1-.786-.616,4.284,4.284,0,0,1-.573-1.019q-.255-.616-.637-1.423ZM343.452-69.575a15.5,15.5,0,0,0,.871,5.245,12.448,12.448,0,0,0,2.485,4.226,11.8,11.8,0,0,0,3.886,2.825,11.945,11.945,0,0,0,5.033,1.041,13.443,13.443,0,0,0,5.118-.977,13.045,13.045,0,0,0,4.184-2.7,13.411,13.411,0,0,0,2.867-4.056,13.3,13.3,0,0,0,1.211-5.012v-.595a13.418,13.418,0,0,0-1.019-5.182,13.728,13.728,0,0,0-2.824-4.332,13.385,13.385,0,0,0-4.247-2.952,12.9,12.9,0,0,0-5.288-1.083,11.548,11.548,0,0,0-5.033,1.083,11.757,11.757,0,0,0-3.886,2.952,13.374,13.374,0,0,0-2.485,4.332A15.432,15.432,0,0,0,343.452-69.575Z" transform="translate(-5.32 118.038)" fill="#dff473"/>
            <g id="virus" transform="translate(170.253 11.679)">
              <path id="Path_6" data-name="Path 6" d="M423.054,164.615l-6.861,1.838a2.115,2.115,0,1,0,1.1,4.087l6.86-1.838.049.183a2.115,2.115,0,1,0,4.086-1.1l-1.193-4.452a2.115,2.115,0,1,0-4.086,1.095Z" transform="translate(-356.153 -138.955)" fill="#dff473"/>
              <path id="Path_7" data-name="Path 7" d="M426.789,287.755a2.115,2.115,0,0,0-2.591,1.5l-.049.182-6.86-1.838a2.115,2.115,0,1,0-1.1,4.086l6.861,1.838-.049.183a2.115,2.115,0,1,0,4.086,1.1l1.193-4.452A2.115,2.115,0,0,0,426.789,287.755Z" transform="translate(-356.153 -246.976)" fill="#dff473"/>
              <path id="Path_8" data-name="Path 8" d="M1.568,170.381a2.115,2.115,0,0,0,2.591-1.5l.049-.183,6.861,1.838a2.115,2.115,0,0,0,1.1-4.087L5.3,164.615l.049-.183a2.115,2.115,0,1,0-4.086-1.095L.073,167.79A2.116,2.116,0,0,0,1.568,170.381Z" transform="translate(0 -138.956)" fill="#dff473"/>
              <g id="Group_12" data-name="Group 12" transform="translate(7.914 0)">
                <path id="Path_9" data-name="Path 9" d="M294.792,1.265,290.34.073a2.115,2.115,0,1,0-1.1,4.086l.183.049-1.838,6.861a2.115,2.115,0,1,0,4.086,1.1L293.515,5.3l.183.049a2.115,2.115,0,0,0,1.1-4.086Z" transform="translate(-254.885 0)" fill="#dff473"/>
                <path id="Path_10" data-name="Path 10" d="M371.717,67.879l5.022-5.022.134.134A2.115,2.115,0,0,0,379.864,60l-3.259-3.259a2.115,2.115,0,0,0-2.992,2.991l.134.134-5.023,5.022a2.115,2.115,0,1,0,2.992,2.991Z" transform="translate(-324.108 -48.206)" fill="#dff473"/>
                <g id="Group_11" data-name="Group 11" transform="translate(0 0)">
                  <path id="Path_11" data-name="Path 11" d="M168.707,4.208l.183-.049A2.115,2.115,0,0,0,167.794.073l-4.452,1.193a2.115,2.115,0,1,0,1.1,4.086l.183-.049,1.838,6.861a2.115,2.115,0,0,0,4.087-1.1Z" transform="translate(-146.875 0)" fill="#dff473"/>
                  <path id="Path_12" data-name="Path 12" d="M62.857,59.865l.134-.134A2.115,2.115,0,0,0,60,56.74L56.74,60a2.115,2.115,0,0,0,2.992,2.992l.134-.134,5.022,5.022a2.115,2.115,0,0,0,2.992-2.992Z" transform="translate(-56.121 -48.206)" fill="#dff473"/>
                </g>
              </g>
              <path id="Path_13" data-name="Path 13" d="M5.3,293.52l6.861-1.838a2.115,2.115,0,0,0-1.1-4.087l-6.861,1.839-.049-.183a2.115,2.115,0,1,0-4.086,1.095L1.266,294.8a2.115,2.115,0,0,0,4.086-1.1Z" transform="translate(0 -246.976)" fill="#dff473"/>
              <g id="Group_14" data-name="Group 14" transform="translate(7.914 51.911)">
                <path id="Path_14" data-name="Path 14" d="M293.7,423l-.183.049-1.838-6.861a2.116,2.116,0,0,0-4.087,1.1l1.839,6.861-.183.049a2.115,2.115,0,0,0,1.1,4.087l4.452-1.193A2.115,2.115,0,0,0,293.7,423Z" transform="translate(-254.885 -408.057)" fill="#dff473"/>
                <path id="Path_15" data-name="Path 15" d="M376.871,373.613l-.134.134-5.022-5.022a2.115,2.115,0,0,0-2.992,2.992l5.022,5.022-.134.134a2.115,2.115,0,1,0,2.991,2.992l3.259-3.259a2.115,2.115,0,1,0-2.991-2.991Z" transform="translate(-324.106 -368.104)" fill="#dff473"/>
                <g id="Group_13" data-name="Group 13">
                  <path id="Path_16" data-name="Path 16" d="M169.047,414.69a2.116,2.116,0,0,0-2.591,1.5l-1.838,6.861-.183-.049a2.115,2.115,0,0,0-1.095,4.087l4.452,1.193a2.115,2.115,0,0,0,1.1-4.086l-.183-.049,1.839-6.861A2.115,2.115,0,0,0,169.047,414.69Z" transform="translate(-146.873 -408.057)" fill="#dff473"/>
                  <path id="Path_17" data-name="Path 17" d="M64.887,368.724l-5.022,5.022-.134-.134a2.115,2.115,0,1,0-2.992,2.992L60,379.863a2.115,2.115,0,0,0,2.992-2.991l-.134-.134,5.022-5.022a2.115,2.115,0,1,0-2.991-2.991Z" transform="translate(-56.119 -368.104)" fill="#dff473"/>
                </g>
              </g>
              <ellipse id="Ellipse_1" data-name="Ellipse 1" cx="27.465" cy="27.465" rx="27.465" ry="27.465" transform="translate(8.637 8.637)" fill="#dff473"/>
              <path id="Path_18" data-name="Path 18" d="M256,116.173V61.243a27.465,27.465,0,1,1,0,54.93Z" transform="translate(-219.898 -52.606)" fill="#dff473"/>
              <g id="Group_15" data-name="Group 15" transform="translate(18.126 18.126)">
                <ellipse id="Ellipse_2" data-name="Ellipse 2" cx="2.115" cy="2.115" rx="2.115" ry="2.115" transform="translate(15.86)" fill="#dff473"/>
                <ellipse id="Ellipse_3" data-name="Ellipse 3" cx="2.115" cy="2.115" rx="2.115" ry="2.115" transform="translate(15.86 31.721)" fill="#dff473"/>
                <ellipse id="Ellipse_4" data-name="Ellipse 4" cx="2.115" cy="2.115" rx="2.115" ry="2.115" transform="translate(11.329 20.392)" fill="#dff473"/>
                <ellipse id="Ellipse_5" data-name="Ellipse 5" cx="2.115" cy="2.115" rx="2.115" ry="2.115" transform="translate(20.392 20.392)" fill="#dff473"/>
                <ellipse id="Ellipse_6" data-name="Ellipse 6" cx="2.115" cy="2.115" rx="2.115" ry="2.115" transform="translate(20.392 11.329)" fill="#dff473"/>
                <ellipse id="Ellipse_7" data-name="Ellipse 7" cx="2.115" cy="2.115" rx="2.115" ry="2.115" transform="translate(11.329 11.329)" fill="#dff473"/>
                <ellipse id="Ellipse_8" data-name="Ellipse 8" cx="2.115" cy="2.115" rx="2.115" ry="2.115" transform="translate(31.721 15.86)" fill="#dff473"/>
                <ellipse id="Ellipse_9" data-name="Ellipse 9" cx="2.115" cy="2.115" rx="2.115" ry="2.115" transform="translate(0 15.86)" fill="#dff473"/>
                <ellipse id="Ellipse_10" data-name="Ellipse 10" cx="2.115" cy="2.115" rx="2.115" ry="2.115" transform="translate(27.076 4.646)" fill="#dff473"/>
                <ellipse id="Ellipse_11" data-name="Ellipse 11" cx="2.115" cy="2.115" rx="2.115" ry="2.115" transform="translate(4.645 27.076)" fill="#dff473"/>
                <ellipse id="Ellipse_12" data-name="Ellipse 12" cx="2.115" cy="2.115" rx="2.115" ry="2.115" transform="translate(27.076 27.076)" fill="#dff473"/>
                <ellipse id="Ellipse_13" data-name="Ellipse 13" cx="2.115" cy="2.115" rx="2.115" ry="2.115" transform="translate(4.645 4.646)" fill="#dff473"/>
              </g>
              <path id="Path_19" data-name="Path 19" d="M258.116,355.583A2.117,2.117,0,0,0,256,353.467V357.7A2.116,2.116,0,0,0,258.116,355.583Z" transform="translate(-219.898 -303.62)" fill="#dff473"/>
              <path id="Path_20" data-name="Path 20" d="M258.116,130.648A2.116,2.116,0,0,0,256,128.533v4.231A2.116,2.116,0,0,0,258.116,130.648Z" transform="translate(-219.898 -110.407)" fill="#dff473"/>
            </g>
          </g>
          <path id="Path_7860" data-name="Path 7860" d="M3.763-9.6a.528.528,0,0,1-.39-.154.528.528,0,0,1-.154-.39V-25.573a.559.559,0,0,1,.154-.414.528.528,0,0,1,.39-.154H9.127q3.568,0,5.152,1.6a6.789,6.789,0,0,1,1.654,4.809q.024.685.024,1.843t-.024,1.867a9.173,9.173,0,0,1-.744,3.651,4.334,4.334,0,0,1-2.115,2.091A9,9,0,0,1,9.245-9.6Zm5.364-2.009a6.18,6.18,0,0,0,2.588-.449,2.775,2.775,0,0,0,1.394-1.43,7.08,7.08,0,0,0,.484-2.635q.047-1.418.047-1.772,0-.378-.047-1.749a4.852,4.852,0,0,0-1.111-3.415,4.741,4.741,0,0,0-3.474-1.075H5.535v12.525ZM20.4-5.108a.453.453,0,0,1-.331-.142.453.453,0,0,1-.142-.331,1.091,1.091,0,0,1,.118-.425l1.82-4.325L17.351-20.989a1.519,1.519,0,0,1-.118-.4.481.481,0,0,1,.142-.354.481.481,0,0,1,.354-.142h1.158a.606.606,0,0,1,.567.4l3.592,8.6,3.687-8.6a.621.621,0,0,1,.591-.4h1.111a.481.481,0,0,1,.354.142.453.453,0,0,1,.142.331,2.268,2.268,0,0,1-.118.425L22.1-5.51a.621.621,0,0,1-.591.4ZM30.892-9.6a.528.528,0,0,1-.39-.154.528.528,0,0,1-.154-.39v-11.2a.528.528,0,0,1,.154-.39.528.528,0,0,1,.39-.154H32a.528.528,0,0,1,.39.154.528.528,0,0,1,.154.39v1.04a4.8,4.8,0,0,1,1.619-1.347,5.125,5.125,0,0,1,2.328-.473,4.434,4.434,0,0,1,3.533,1.453,5.679,5.679,0,0,1,1.264,3.864v6.664a.528.528,0,0,1-.154.39.528.528,0,0,1-.39.154H39.565a.528.528,0,0,1-.39-.154.528.528,0,0,1-.154-.39v-6.546a3.794,3.794,0,0,0-.815-2.6,2.974,2.974,0,0,0-2.351-.922,3.082,3.082,0,0,0-2.363.933,3.637,3.637,0,0,0-.874,2.588v6.546a.528.528,0,0,1-.154.39.528.528,0,0,1-.39.154Zm16.259.236A4.937,4.937,0,0,1,45-9.835a3.979,3.979,0,0,1-1.572-1.288,3.052,3.052,0,0,1-.579-1.808,3.115,3.115,0,0,1,1.288-2.564,7.2,7.2,0,0,1,3.486-1.312l3.521-.5v-.685q0-2.41-2.765-2.41a3.031,3.031,0,0,0-1.7.437,3,3,0,0,0-.993,1.028.7.7,0,0,1-.177.307.429.429,0,0,1-.3.095H44.2a.5.5,0,0,1-.366-.154.5.5,0,0,1-.154-.366,2.51,2.51,0,0,1,.532-1.288,4.125,4.125,0,0,1,1.572-1.253,5.829,5.829,0,0,1,2.623-.532,5.01,5.01,0,0,1,3.8,1.241A4.347,4.347,0,0,1,53.366-17.8v7.657a.528.528,0,0,1-.154.39.528.528,0,0,1-.39.154H51.735a.528.528,0,0,1-.39-.154.528.528,0,0,1-.154-.39v-1.016a4.084,4.084,0,0,1-1.512,1.276A5.427,5.427,0,0,1,47.151-9.362Zm.5-1.772a3.365,3.365,0,0,0,2.517-1,3.976,3.976,0,0,0,.981-2.895V-15.7l-2.741.4a6.326,6.326,0,0,0-2.529.792,1.639,1.639,0,0,0-.851,1.406,1.633,1.633,0,0,0,.78,1.453A3.3,3.3,0,0,0,47.647-11.134ZM56.367-9.6a.528.528,0,0,1-.39-.154.528.528,0,0,1-.154-.39v-11.2a.528.528,0,0,1,.154-.39.528.528,0,0,1,.39-.154h1.063a.528.528,0,0,1,.39.154.528.528,0,0,1,.154.39v.827A4.068,4.068,0,0,1,61.4-22.123a3.816,3.816,0,0,1,3.71,2.174,4.2,4.2,0,0,1,1.607-1.583,4.651,4.651,0,0,1,2.34-.591A4.126,4.126,0,0,1,72.224-20.8a5.428,5.428,0,0,1,1.229,3.828v6.83a.528.528,0,0,1-.154.39.528.528,0,0,1-.39.154H71.8a.528.528,0,0,1-.39-.154.528.528,0,0,1-.154-.39v-6.617a3.755,3.755,0,0,0-.768-2.647,2.667,2.667,0,0,0-2.021-.8,2.6,2.6,0,0,0-1.914.815,3.65,3.65,0,0,0-.8,2.635v6.617a.528.528,0,0,1-.154.39.528.528,0,0,1-.39.154H64.095a.528.528,0,0,1-.39-.154.528.528,0,0,1-.154-.39v-6.617a3.679,3.679,0,0,0-.792-2.647,2.686,2.686,0,0,0-2-.8,2.6,2.6,0,0,0-1.914.815,3.611,3.611,0,0,0-.8,2.611v6.641a.528.528,0,0,1-.154.39.528.528,0,0,1-.39.154ZM76.242-24.179a.528.528,0,0,1-.39-.154.528.528,0,0,1-.154-.39V-26a.569.569,0,0,1,.154-.4.509.509,0,0,1,.39-.165H77.73a.547.547,0,0,1,.4.165.547.547,0,0,1,.165.4v1.276a.509.509,0,0,1-.165.39.569.569,0,0,1-.4.154ZM76.431-9.6a.528.528,0,0,1-.39-.154.528.528,0,0,1-.154-.39v-11.2a.528.528,0,0,1,.154-.39.528.528,0,0,1,.39-.154h1.134a.528.528,0,0,1,.39.154.528.528,0,0,1,.154.39v11.2a.528.528,0,0,1-.154.39.528.528,0,0,1-.39.154Zm9.193.236a5.35,5.35,0,0,1-3.958-1.43A5.729,5.729,0,0,1,80.141-14.8l-.024-.945.024-.945a5.73,5.73,0,0,1,1.524-4.006,5.35,5.35,0,0,1,3.958-1.43,6.19,6.19,0,0,1,2.883.614A4.493,4.493,0,0,1,90.267-20a3.658,3.658,0,0,1,.626,1.8.414.414,0,0,1-.142.378.6.6,0,0,1-.4.142H89.215a.56.56,0,0,1-.354-.095.974.974,0,0,1-.236-.378,3.093,3.093,0,0,0-1.134-1.619,3.275,3.275,0,0,0-1.843-.484,3.055,3.055,0,0,0-2.328.91,4.15,4.15,0,0,0-.933,2.777l-.024.851.024.8a4.177,4.177,0,0,0,.922,2.789,3.068,3.068,0,0,0,2.34.9,3.274,3.274,0,0,0,1.843-.484,3.093,3.093,0,0,0,1.134-1.619,1.113,1.113,0,0,1,.236-.39.516.516,0,0,1,.354-.106H90.35a.569.569,0,0,1,.4.154.444.444,0,0,1,.142.39,3.7,3.7,0,0,1-.626,1.784,4.469,4.469,0,0,1-1.749,1.524A6.173,6.173,0,0,1,85.623-9.362Zm18.244,0a6.382,6.382,0,0,1-4.809-1.7,6.9,6.9,0,0,1-1.761-4.7q-.024-.638-.024-2.08,0-1.465.024-2.127a6.885,6.885,0,0,1,1.772-4.691,6.364,6.364,0,0,1,4.8-1.713,7.81,7.81,0,0,1,3.568.744,5.46,5.46,0,0,1,2.221,1.95,5.293,5.293,0,0,1,.827,2.576v.047a.4.4,0,0,1-.154.319.517.517,0,0,1-.343.13h-1.3q-.473,0-.591-.544a3.941,3.941,0,0,0-1.442-2.493,4.813,4.813,0,0,0-2.789-.721q-4.065,0-4.206,4.514-.024.638-.024,1.961t.024,2.009q.142,4.514,4.206,4.514a4.871,4.871,0,0,0,2.8-.721,3.833,3.833,0,0,0,1.43-2.493.768.768,0,0,1,.213-.425.572.572,0,0,1,.378-.118h1.3a.548.548,0,0,1,.366.13.369.369,0,0,1,.13.343,5.327,5.327,0,0,1-.827,2.6,5.46,5.46,0,0,1-2.221,1.95A7.81,7.81,0,0,1,103.867-9.362Zm13.565,0a5.372,5.372,0,0,1-4.029-1.465,5.677,5.677,0,0,1-1.524-3.9l-.024-1.016.024-1.016a5.663,5.663,0,0,1,1.536-3.887,5.355,5.355,0,0,1,4.017-1.477,5.355,5.355,0,0,1,4.017,1.477,5.664,5.664,0,0,1,1.536,3.887q.024.26.024,1.016t-.024,1.016a5.677,5.677,0,0,1-1.524,3.9A5.372,5.372,0,0,1,117.432-9.362Zm0-1.82a3.025,3.025,0,0,0,2.351-.945,4.153,4.153,0,0,0,.933-2.718q.024-.236.024-.9t-.024-.9a4.153,4.153,0,0,0-.933-2.718,3.025,3.025,0,0,0-2.351-.945,3.062,3.062,0,0,0-2.363.945,4.027,4.027,0,0,0-.922,2.718l-.024.9.024.9a4.027,4.027,0,0,0,.922,2.718A3.062,3.062,0,0,0,117.432-11.182ZM128.846-9.6a.9.9,0,0,1-.874-.591L123.6-21.154l-.047-.236a.481.481,0,0,1,.142-.354.481.481,0,0,1,.354-.142h1.134a.621.621,0,0,1,.591.4l3.592,9.311,3.592-9.311a.637.637,0,0,1,.567-.4h1.158a.493.493,0,0,1,.343.142.462.462,0,0,1,.154.354l-.047.236-4.4,10.965a.9.9,0,0,1-.874.591Zm8.224-14.581a.528.528,0,0,1-.39-.154.528.528,0,0,1-.154-.39V-26a.569.569,0,0,1,.154-.4.509.509,0,0,1,.39-.165h1.489a.547.547,0,0,1,.4.165.547.547,0,0,1,.165.4v1.276a.509.509,0,0,1-.165.39.569.569,0,0,1-.4.154ZM137.259-9.6a.528.528,0,0,1-.39-.154.528.528,0,0,1-.154-.39v-11.2a.528.528,0,0,1,.154-.39.528.528,0,0,1,.39-.154h1.134a.528.528,0,0,1,.39.154.528.528,0,0,1,.154.39v11.2a.528.528,0,0,1-.154.39.528.528,0,0,1-.39.154Zm8.72.236a4.416,4.416,0,0,1-3.71-1.607,6.744,6.744,0,0,1-1.323-4.065l-.024-.709.024-.709a6.761,6.761,0,0,1,1.323-4.053,4.4,4.4,0,0,1,3.71-1.619,4.655,4.655,0,0,1,3.828,1.725v-5.435a.528.528,0,0,1,.154-.39.528.528,0,0,1,.39-.154h1.134a.528.528,0,0,1,.39.154.528.528,0,0,1,.154.39v15.692a.528.528,0,0,1-.154.39.528.528,0,0,1-.39.154h-1.063a.528.528,0,0,1-.39-.154.528.528,0,0,1-.154-.39v-.993A4.639,4.639,0,0,1,145.979-9.362Zm.5-1.914a2.875,2.875,0,0,0,2.446-1.075,4.489,4.489,0,0,0,.886-2.564q.024-.26.024-.9,0-.662-.024-.922a3.949,3.949,0,0,0-.9-2.434,2.965,2.965,0,0,0-2.434-1.04,2.839,2.839,0,0,0-2.446,1.04,4.859,4.859,0,0,0-.839,2.741l-.024.685Q143.167-11.276,146.476-11.276ZM163.325-9.6a.528.528,0,0,1-.39-.154.528.528,0,0,1-.154-.39v-13.9h-4.537a.528.528,0,0,1-.39-.154.528.528,0,0,1-.154-.39v-.993a.569.569,0,0,1,.154-.4.509.509,0,0,1,.39-.165h11.391a.559.559,0,0,1,.414.154.559.559,0,0,1,.154.414v.993a.509.509,0,0,1-.165.39.569.569,0,0,1-.4.154h-4.514v13.9a.509.509,0,0,1-.165.39.569.569,0,0,1-.4.154Zm6.9,0a.528.528,0,0,1-.39-.154.528.528,0,0,1-.154-.39V-21.32a.569.569,0,0,1,.154-.4.509.509,0,0,1,.39-.165h1.087a.547.547,0,0,1,.4.165.547.547,0,0,1,.165.4v1.04a3.55,3.55,0,0,1,3.308-1.607h.922a.528.528,0,0,1,.39.154.528.528,0,0,1,.154.39v.969A.49.49,0,0,1,176.5-20a.552.552,0,0,1-.39.142h-1.418a2.69,2.69,0,0,0-2.009.744,2.755,2.755,0,0,0-.733,2.021v6.948a.509.509,0,0,1-.165.39.569.569,0,0,1-.4.154Zm10.729.236a4.937,4.937,0,0,1-2.15-.473,3.979,3.979,0,0,1-1.571-1.288,3.052,3.052,0,0,1-.579-1.808,3.115,3.115,0,0,1,1.288-2.564,7.2,7.2,0,0,1,3.486-1.312l3.521-.5v-.685q0-2.41-2.765-2.41a3.031,3.031,0,0,0-1.7.437,3,3,0,0,0-.993,1.028.7.7,0,0,1-.177.307.429.429,0,0,1-.3.095H178a.5.5,0,0,1-.366-.154.5.5,0,0,1-.154-.366,2.51,2.51,0,0,1,.532-1.288,4.125,4.125,0,0,1,1.572-1.253,5.829,5.829,0,0,1,2.623-.532,5.01,5.01,0,0,1,3.8,1.241A4.347,4.347,0,0,1,187.17-17.8v7.657a.528.528,0,0,1-.154.39.528.528,0,0,1-.39.154h-1.087a.528.528,0,0,1-.39-.154.528.528,0,0,1-.154-.39v-1.016a4.084,4.084,0,0,1-1.512,1.276A5.427,5.427,0,0,1,180.954-9.362Zm.5-1.772a3.365,3.365,0,0,0,2.517-1,3.976,3.976,0,0,0,.981-2.895V-15.7l-2.741.4a6.326,6.326,0,0,0-2.529.792,1.639,1.639,0,0,0-.851,1.406,1.633,1.633,0,0,0,.78,1.453A3.3,3.3,0,0,0,181.451-11.134ZM194.59-9.362a5.35,5.35,0,0,1-3.958-1.43,5.73,5.73,0,0,1-1.524-4.006l-.024-.945.024-.945a5.73,5.73,0,0,1,1.524-4.006,5.35,5.35,0,0,1,3.958-1.43,6.189,6.189,0,0,1,2.883.614A4.493,4.493,0,0,1,199.234-20a3.658,3.658,0,0,1,.626,1.8.414.414,0,0,1-.142.378.6.6,0,0,1-.4.142h-1.134a.56.56,0,0,1-.354-.095.973.973,0,0,1-.236-.378,3.093,3.093,0,0,0-1.134-1.619,3.275,3.275,0,0,0-1.843-.484,3.055,3.055,0,0,0-2.328.91,4.15,4.15,0,0,0-.933,2.777l-.024.851.024.8a4.177,4.177,0,0,0,.922,2.789,3.068,3.068,0,0,0,2.34.9,3.274,3.274,0,0,0,1.843-.484,3.093,3.093,0,0,0,1.134-1.619,1.112,1.112,0,0,1,.236-.39.515.515,0,0,1,.354-.106h1.134a.569.569,0,0,1,.4.154.444.444,0,0,1,.142.39,3.7,3.7,0,0,1-.626,1.784,4.469,4.469,0,0,1-1.749,1.524A6.173,6.173,0,0,1,194.59-9.362Zm7.7-.236a.528.528,0,0,1-.39-.154.528.528,0,0,1-.154-.39V-25.833a.528.528,0,0,1,.154-.39.528.528,0,0,1,.39-.154H203.4a.528.528,0,0,1,.39.154.528.528,0,0,1,.154.39v8.224l4.655-3.876a2.944,2.944,0,0,0,.236-.189,1.126,1.126,0,0,1,.319-.165,1.35,1.35,0,0,1,.39-.047H210.8a.481.481,0,0,1,.354.142.481.481,0,0,1,.142.354.539.539,0,0,1-.284.449L205.555-16.4l6.05,5.884q.284.236.284.425a.481.481,0,0,1-.142.354.481.481,0,0,1-.354.142h-1.229a1.31,1.31,0,0,1-.508-.071,2.006,2.006,0,0,1-.437-.331l-5.27-5.034v4.892a.528.528,0,0,1-.154.39.528.528,0,0,1-.39.154ZM213.33-24.179a.528.528,0,0,1-.39-.154.528.528,0,0,1-.154-.39V-26a.569.569,0,0,1,.154-.4.509.509,0,0,1,.39-.165h1.489a.547.547,0,0,1,.4.165.547.547,0,0,1,.165.4v1.276a.509.509,0,0,1-.165.39.569.569,0,0,1-.4.154ZM213.519-9.6a.528.528,0,0,1-.39-.154.528.528,0,0,1-.154-.39v-11.2a.528.528,0,0,1,.154-.39.528.528,0,0,1,.39-.154h1.134a.528.528,0,0,1,.39.154.528.528,0,0,1,.154.39v11.2a.528.528,0,0,1-.154.39.529.529,0,0,1-.39.154Zm4.774,0a.528.528,0,0,1-.39-.154.528.528,0,0,1-.154-.39v-11.2a.528.528,0,0,1,.154-.39.528.528,0,0,1,.39-.154H219.4a.528.528,0,0,1,.39.154.528.528,0,0,1,.154.39v1.04a4.8,4.8,0,0,1,1.619-1.347,5.125,5.125,0,0,1,2.328-.473,4.434,4.434,0,0,1,3.533,1.453,5.678,5.678,0,0,1,1.264,3.864v6.664a.529.529,0,0,1-.154.39.529.529,0,0,1-.39.154h-1.182a.529.529,0,0,1-.39-.154.528.528,0,0,1-.154-.39v-6.546a3.794,3.794,0,0,0-.815-2.6,2.973,2.973,0,0,0-2.351-.922,3.082,3.082,0,0,0-2.363.933,3.637,3.637,0,0,0-.874,2.588v6.546a.528.528,0,0,1-.154.39.528.528,0,0,1-.39.154Zm17.866,5.2a6.465,6.465,0,0,1-3.119-.65,4.3,4.3,0,0,1-1.678-1.477,3.454,3.454,0,0,1-.544-1.489.461.461,0,0,1,.154-.4.56.56,0,0,1,.39-.165H232.5a.574.574,0,0,1,.354.106.787.787,0,0,1,.236.39,3.174,3.174,0,0,0,.934,1.312,3.064,3.064,0,0,0,2.02.555,3.768,3.768,0,0,0,2.576-.744,3.437,3.437,0,0,0,.827-2.635v-1.607a4.415,4.415,0,0,1-1.56,1.241,5.075,5.075,0,0,1-2.245.461,4.451,4.451,0,0,1-3.746-1.6,6.736,6.736,0,0,1-1.312-4.053l-.024-.662.024-.638A6.762,6.762,0,0,1,231.9-20.5a4.429,4.429,0,0,1,3.734-1.619,4.607,4.607,0,0,1,3.876,1.82V-21.32a.569.569,0,0,1,.154-.4.509.509,0,0,1,.39-.165h1.087a.547.547,0,0,1,.4.165.547.547,0,0,1,.165.4V-9.858Q241.712-4.4,236.159-4.4Zm-.047-7a2.9,2.9,0,0,0,2.434-1.063,4.355,4.355,0,0,0,.9-2.529q.024-.213.024-.827,0-.591-.024-.8a4.4,4.4,0,0,0-.886-2.529,2.889,2.889,0,0,0-2.446-1.063,2.806,2.806,0,0,0-2.434,1.04,4.917,4.917,0,0,0-.827,2.741l-.024.614.024.638a4.938,4.938,0,0,0,.827,2.729A2.792,2.792,0,0,0,236.111-11.394Z" transform="translate(137.869 129.697)" fill="#fff"/>
        </g>
      </g>
    </g>
  </g>
</svg>
