<svg xmlns="http://www.w3.org/2000/svg" xmlns:xlink="http://www.w3.org/1999/xlink" width="300" height="300" viewBox="0 0 300 300">
  <defs>
    <clipPath id="clip-dycovid">
      <rect width="300" height="300"/>
    </clipPath>
  </defs>
  <g id="dycovid" clip-path="url(#clip-dycovid)">
    <rect width="300" height="300" fill="#7f72cd"/>
    <g id="Group_8172" data-name="Group 8172" transform="translate(31.887 118.539)">
      <g id="Group_2658" data-name="Group 2658" transform="translate(15.176 0.885)">
        <g id="Group_2576" data-name="Group 2576" transform="translate(0)">
          <g id="Group_190" data-name="Group 190" transform="translate(0)">
            <path id="Path_7859" data-name="Path 7859" d="M26.359-81.3a13.964,13.964,0,0,1-1.369,1.191,11.185,11.185,0,0,1-1.67,1.058,10.1,10.1,0,0,1-1.937.757,8.112,8.112,0,0,1-2.193.289,13.551,13.551,0,0,1-5.577-1.135,13.347,13.347,0,0,1-4.386-3.106A14.309,14.309,0,0,1,6.355-86.89,15.759,15.759,0,0,1,5.32-92.635,15.733,15.733,0,0,1,6.355-98.39a14.337,14.337,0,0,1,2.872-4.631,13.211,13.211,0,0,1,4.386-3.095,13.667,13.667,0,0,1,5.577-1.124,10.969,10.969,0,0,1,2.238.212,8.065,8.065,0,0,1,1.848.612,8.1,8.1,0,0,1,1.536.957,12.093,12.093,0,0,1,1.325,1.225v-9.284a1.748,1.748,0,0,1,.434-1.2,1.65,1.65,0,0,1,1.3-.49h5.009a1.728,1.728,0,0,1,.612.122,2.051,2.051,0,0,1,.59.345,1.786,1.786,0,0,1,.434.534,1.438,1.438,0,0,1,.167.69v33.284q0,1.714-1.8,1.714H28.519a1.713,1.713,0,0,1-.69-.111,1.1,1.1,0,0,1-.412-.323,2.247,2.247,0,0,1-.3-.534q-.134-.323-.334-.746ZM13.335-92.635a8.129,8.129,0,0,0,.456,2.75,6.525,6.525,0,0,0,1.3,2.215,6.185,6.185,0,0,0,2.037,1.481,6.261,6.261,0,0,0,2.638.545,7.047,7.047,0,0,0,2.683-.512,6.838,6.838,0,0,0,2.193-1.414,7.03,7.03,0,0,0,1.5-2.126,6.973,6.973,0,0,0,.635-2.627v-.312a7.034,7.034,0,0,0-.534-2.716,7.2,7.2,0,0,0-1.481-2.271,7.015,7.015,0,0,0-2.226-1.547,6.759,6.759,0,0,0-2.772-.568,6.053,6.053,0,0,0-2.638.568,6.162,6.162,0,0,0-2.037,1.547,7.01,7.01,0,0,0-1.3,2.271A8.09,8.09,0,0,0,13.335-92.635ZM38-104.657a1.739,1.739,0,0,1-.011-1.525q.345-.634,1.525-.635h5.5a1.258,1.258,0,0,1,.913.345,2.159,2.159,0,0,1,.534.857l6.3,17.922,6.167-17.922a1.791,1.791,0,0,1,.623-.957,1.915,1.915,0,0,1,1.046-.245h5.722a2.351,2.351,0,0,1,.98.167,1.029,1.029,0,0,1,.5.445,1.034,1.034,0,0,1,.1.623,2.78,2.78,0,0,1-.178.679q-.846,2.093-1.848,4.575T63.8-95.161q-1.08,2.683-2.193,5.455t-2.171,5.443q-1.058,2.672-2.037,5.132T55.6-74.612q-.813,2.059-1.414,3.618t-.913,2.4l.067-.111a1.936,1.936,0,0,1-.557.968,1.4,1.4,0,0,1-.98.367H46.664a1.863,1.863,0,0,1-1.369-.39,1.613,1.613,0,0,1-.367-1.147,1.019,1.019,0,0,1,.078-.445.884.884,0,0,1,.122-.2l3.5-9.084ZM87.229-87.224a1.563,1.563,0,0,1,.59-.278,2.371,2.371,0,0,1,.434-.056,1.522,1.522,0,0,1,.69.156,1.853,1.853,0,0,1,.646.668l2.494,3.763a3.362,3.362,0,0,1,.211.4.934.934,0,0,1,.1.356,1.13,1.13,0,0,1-.323.835,4.27,4.27,0,0,1-.7.568,16.759,16.759,0,0,1-4,2.037,13.682,13.682,0,0,1-4.6.768,14.479,14.479,0,0,1-3.863-.512,14.188,14.188,0,0,1-3.462-1.458,14.96,14.96,0,0,1-2.939-2.271,13.9,13.9,0,0,1-2.271-2.95A15.124,15.124,0,0,1,68.783-88.7a14.6,14.6,0,0,1-.523-3.93,14.72,14.72,0,0,1,.523-3.941,14.861,14.861,0,0,1,1.458-3.507,14.024,14.024,0,0,1,2.271-2.939,14.628,14.628,0,0,1,2.939-2.26,14.456,14.456,0,0,1,3.462-1.447,14.48,14.48,0,0,1,3.863-.512,14.927,14.927,0,0,1,4.486.646,13.907,13.907,0,0,1,3.863,1.915l-.067-.067a2.6,2.6,0,0,1,.779.679,1.579,1.579,0,0,1,.289.969,1.542,1.542,0,0,1-.267.824l-1.981,3.362a1.784,1.784,0,0,1-1.514,1.091,1.548,1.548,0,0,1-.49-.1,2.777,2.777,0,0,1-.646-.345,10.159,10.159,0,0,0-2.1-1.057,6.9,6.9,0,0,0-2.393-.412,5.878,5.878,0,0,0-2.583.568,6.077,6.077,0,0,0-2.015,1.547,7.291,7.291,0,0,0-1.3,2.271,7.917,7.917,0,0,0-.468,2.716,7.954,7.954,0,0,0,.468,2.75,6.774,6.774,0,0,0,1.3,2.215,6.1,6.1,0,0,0,2.015,1.481,6.079,6.079,0,0,0,2.583.545,6.354,6.354,0,0,0,2.382-.445A10.767,10.767,0,0,0,87.229-87.224Zm45.819-17.366a1.845,1.845,0,0,1-.167-1.558q.278-.646,1.325-.646h5.7a1.691,1.691,0,0,1,1.013.312,1.655,1.655,0,0,1,.612.891q.379,1.18.835,2.649t.957,3.017q.5,1.547.991,3.072l.9,2.805q.412,1.28.735,2.226t.479,1.347l4.72-15.117a2.048,2.048,0,0,1,.657-.957,1.857,1.857,0,0,1,1.035-.245H158.7a2.4,2.4,0,0,1,.98.156.831.831,0,0,1,.445.423,1.048,1.048,0,0,1,.045.612,3.811,3.811,0,0,1-.223.724l-10.6,25.4a2.722,2.722,0,0,1-.579.679,1.537,1.537,0,0,1-1,.278h-2.649a2.292,2.292,0,0,1-1.258-.256,1.519,1.519,0,0,1-.545-.7Zm29.388-.468a1.927,1.927,0,0,1,.4-1.225,1.485,1.485,0,0,1,1.247-.512h5.1a1.591,1.591,0,0,1,.579.123,1.967,1.967,0,0,1,.579.356,2.316,2.316,0,0,1,.456.545,1.345,1.345,0,0,1,.189.712v24.824a1.662,1.662,0,0,1-.468,1.28,1.892,1.892,0,0,1-1.336.434h-5.1q-1.648,0-1.648-1.714Zm0-11.265a1.8,1.8,0,0,1,.4-1.325,1.732,1.732,0,0,1,1.247-.39h5.165a1.931,1.931,0,0,1,1.258.39,1.618,1.618,0,0,1,.479,1.325v4.341a1.591,1.591,0,0,1-.122.579,2.46,2.46,0,0,1-.345.6,1.88,1.88,0,0,1-.545.479,1.4,1.4,0,0,1-.724.189h-5.165q-1.648,0-1.648-1.848ZM195.587-81.3a13.956,13.956,0,0,1-1.369,1.191,11.184,11.184,0,0,1-1.67,1.058,10.1,10.1,0,0,1-1.937.757,8.112,8.112,0,0,1-2.193.289,13.551,13.551,0,0,1-5.577-1.135,13.347,13.347,0,0,1-4.386-3.106,14.311,14.311,0,0,1-2.872-4.642,15.759,15.759,0,0,1-1.035-5.744,15.733,15.733,0,0,1,1.035-5.755,14.339,14.339,0,0,1,2.872-4.631,13.211,13.211,0,0,1,4.386-3.095,13.667,13.667,0,0,1,5.577-1.124,10.968,10.968,0,0,1,2.238.212,8.065,8.065,0,0,1,1.848.612,8.1,8.1,0,0,1,1.536.957,12.094,12.094,0,0,1,1.325,1.225v-9.284a1.748,1.748,0,0,1,.434-1.2,1.65,1.65,0,0,1,1.3-.49h5.009a1.728,1.728,0,0,1,.612.122,2.051,2.051,0,0,1,.59.345,1.785,1.785,0,0,1,.434.534,1.438,1.438,0,0,1,.167.69v33.284q0,1.714-1.8,1.714h-4.364a1.714,1.714,0,0,1-.69-.111,1.1,1.1,0,0,1-.412-.323,2.246,2.246,0,0,1-.3-.534q-.134-.323-.334-.746ZM182.562-92.635a8.127,8.127,0,0,0,.456,2.75,6.525,6.525,0,0,0,1.3,2.215,6.185,6.185,0,0,0,2.037,1.481,6.261,6.261,0,0,0,2.638.545,7.046,7.046,0,0,0,2.683-.512,6.838,6.838,0,0,0,2.193-1.414,7.03,7.03,0,0,0,1.5-2.126,6.973,6.973,0,0,0,.635-2.627v-.312a7.034,7.034,0,0,0-.534-2.716,7.2,7.2,0,0,0-1.481-2.271,7.016,7.016,0,0,0-2.226-1.547A6.76,6.76,0,0,0,189-99.737a6.053,6.053,0,0,0-2.638.568,6.163,6.163,0,0,0-2.037,1.547,7.01,7.01,0,0,0-1.3,2.271A8.089,8.089,0,0,0,182.562-92.635Z" transform="translate(-5.32 118.038)" fill="#dff473"/>
            <g id="virus" transform="translate(89.244 6.122)">
              <path id="Path_6" data-name="Path 6" d="M419.043,163.26l-3.6.964a1.109,1.109,0,1,0,.574,2.142l3.6-.964.026.1a1.109,1.109,0,1,0,2.142-.574l-.625-2.334a1.109,1.109,0,1,0-2.142.574Z" transform="translate(-383.975 -149.81)" fill="#dff473"/>
              <path id="Path_7" data-name="Path 7" d="M421,287.644a1.109,1.109,0,0,0-1.358.784l-.026.1-3.6-.963a1.109,1.109,0,1,0-.574,2.142l3.6.964-.026.1a1.109,1.109,0,1,0,2.142.574l.625-2.334A1.109,1.109,0,0,0,421,287.644Z" transform="translate(-383.975 -266.269)" fill="#dff473"/>
              <path id="Path_8" data-name="Path 8" d="M.822,166.283A1.109,1.109,0,0,0,2.18,165.5l.026-.1,3.6.964a1.109,1.109,0,0,0,.574-2.142l-3.6-.964.026-.1a1.109,1.109,0,1,0-2.142-.574l-.625,2.334A1.109,1.109,0,0,0,.822,166.283Z" transform="translate(0 -149.811)" fill="#dff473"/>
              <g id="Group_12" data-name="Group 12" transform="translate(4.149 0)">
                <path id="Path_9" data-name="Path 9" d="M291.331.663,289,.038a1.109,1.109,0,1,0-.574,2.142l.1.026-.964,3.6a1.109,1.109,0,1,0,2.142.574l.964-3.6.1.026a1.109,1.109,0,0,0,.574-2.142Z" transform="translate(-270.412 0)" fill="#dff473"/>
                <path id="Path_10" data-name="Path 10" d="M370,62.284l2.633-2.633.07.07a1.109,1.109,0,1,0,1.568-1.568l-1.708-1.708a1.109,1.109,0,1,0-1.568,1.568l.07.07-2.633,2.633A1.109,1.109,0,1,0,370,62.284Z" transform="translate(-345.043 -51.972)" fill="#dff473"/>
                <g id="Group_11" data-name="Group 11" transform="translate(0 0)">
                  <path id="Path_11" data-name="Path 11" d="M165.408,2.206l.1-.026A1.109,1.109,0,0,0,164.93.038L162.6.663a1.109,1.109,0,1,0,.574,2.142l.1-.026.964,3.6a1.109,1.109,0,0,0,2.142-.574Z" transform="translate(-153.964 0)" fill="#dff473"/>
                  <path id="Path_12" data-name="Path 12" d="M59.652,58.084l.07-.07a1.109,1.109,0,0,0-1.568-1.568l-1.708,1.708a1.109,1.109,0,1,0,1.568,1.568l.07-.07,2.633,2.633a1.109,1.109,0,0,0,1.568-1.568Z" transform="translate(-56.121 -51.972)" fill="#dff473"/>
                </g>
              </g>
              <path id="Path_13" data-name="Path 13" d="M2.78,290.667l3.6-.964a1.109,1.109,0,0,0-.574-2.142l-3.6.964-.026-.1A1.109,1.109,0,1,0,.038,289l.625,2.334a1.109,1.109,0,0,0,2.142-.574Z" transform="translate(0 -266.269)" fill="#dff473"/>
              <g id="Group_14" data-name="Group 14" transform="translate(4.148 27.211)">
                <path id="Path_14" data-name="Path 14" d="M290.757,419.01l-.1.026-.964-3.6a1.109,1.109,0,0,0-2.142.574l.964,3.6-.1.026a1.109,1.109,0,0,0,.574,2.142l2.334-.625a1.109,1.109,0,1,0-.574-2.142Z" transform="translate(-270.412 -411.178)" fill="#dff473"/>
                <path id="Path_15" data-name="Path 15" d="M372.7,370.992l-.07.07L370,368.429A1.109,1.109,0,0,0,368.428,370l2.633,2.632-.07.07a1.109,1.109,0,1,0,1.568,1.568l1.708-1.708a1.109,1.109,0,0,0-1.568-1.568Z" transform="translate(-345.041 -368.104)" fill="#dff473"/>
                <g id="Group_13" data-name="Group 13">
                  <path id="Path_16" data-name="Path 16" d="M165.586,414.655a1.109,1.109,0,0,0-1.358.784l-.964,3.6-.1-.026a1.109,1.109,0,0,0-.574,2.142l2.334.625a1.109,1.109,0,0,0,.574-2.142l-.1-.026.964-3.6A1.109,1.109,0,0,0,165.586,414.655Z" transform="translate(-153.962 -411.178)" fill="#dff473"/>
                  <path id="Path_17" data-name="Path 17" d="M60.715,368.429l-2.633,2.632-.07-.07a1.109,1.109,0,0,0-1.568,1.568l1.708,1.708a1.109,1.109,0,0,0,1.568-1.568l-.07-.07L62.283,370a1.109,1.109,0,1,0-1.568-1.568Z" transform="translate(-56.119 -368.104)" fill="#dff473"/>
                </g>
              </g>
              <ellipse id="Ellipse_1" data-name="Ellipse 1" cx="14.397" cy="14.397" rx="14.397" ry="14.397" transform="translate(4.527 4.527)" fill="#dff473"/>
              <path id="Path_18" data-name="Path 18" d="M256,90.037V61.243a14.4,14.4,0,1,1,0,28.794Z" transform="translate(-237.076 -56.716)" fill="#dff473"/>
              <g id="Group_15" data-name="Group 15" transform="translate(9.501 9.501)">
                <ellipse id="Ellipse_2" data-name="Ellipse 2" cx="1.109" cy="1.109" rx="1.109" ry="1.109" transform="translate(8.314)" fill="#dff473"/>
                <ellipse id="Ellipse_3" data-name="Ellipse 3" cx="1.109" cy="1.109" rx="1.109" ry="1.109" transform="translate(8.314 16.628)" fill="#dff473"/>
                <ellipse id="Ellipse_4" data-name="Ellipse 4" cx="1.109" cy="1.109" rx="1.109" ry="1.109" transform="translate(5.938 10.689)" fill="#dff473"/>
                <ellipse id="Ellipse_5" data-name="Ellipse 5" cx="1.109" cy="1.109" rx="1.109" ry="1.109" transform="translate(10.689 10.689)" fill="#dff473"/>
                <ellipse id="Ellipse_6" data-name="Ellipse 6" cx="1.109" cy="1.109" rx="1.109" ry="1.109" transform="translate(10.689 5.938)" fill="#dff473"/>
                <ellipse id="Ellipse_7" data-name="Ellipse 7" cx="1.109" cy="1.109" rx="1.109" ry="1.109" transform="translate(5.938 5.938)" fill="#dff473"/>
                <ellipse id="Ellipse_8" data-name="Ellipse 8" cx="1.109" cy="1.109" rx="1.109" ry="1.109" transform="translate(16.628 8.314)" fill="#dff473"/>
                <ellipse id="Ellipse_9" data-name="Ellipse 9" cx="1.109" cy="1.109" rx="1.109" ry="1.109" transform="translate(0 8.314)" fill="#dff473"/>
                <ellipse id="Ellipse_10" data-name="Ellipse 10" cx="1.109" cy="1.109" rx="1.109" ry="1.109" transform="translate(14.192 2.435)" fill="#dff473"/>
                <ellipse id="Ellipse_11" data-name="Ellipse 11" cx="1.109" cy="1.109" rx="1.109" ry="1.109" transform="translate(2.435 14.193)" fill="#dff473"/>
                <ellipse id="Ellipse_12" data-name="Ellipse 12" cx="1.109" cy="1.109" rx="1.109" ry="1.109" transform="translate(14.192 14.193)" fill="#dff473"/>
                <ellipse id="Ellipse_13" data-name="Ellipse 13" cx="1.109" cy="1.109" rx="1.109" ry="1.109" transform="translate(2.435 2.435)" fill="#dff473"/>
              </g>
              <path id="Path_19" data-name="Path 19" d="M257.109,354.576A1.109,1.109,0,0,0,256,353.467v2.218A1.109,1.109,0,0,0,257.109,354.576Z" transform="translate(-237.076 -327.338)" fill="#dff473"/>
              <path id="Path_20" data-name="Path 20" d="M257.109,129.642A1.109,1.109,0,0,0,256,128.533v2.218A1.109,1.109,0,0,0,257.109,129.642Z" transform="translate(-237.076 -119.032)" fill="#dff473"/>
            </g>
          </g>
          <path id="Path_7860" data-name="Path 7860" d="M3.5-17.672a.277.277,0,0,1-.2-.081.277.277,0,0,1-.081-.2v-8.089a.293.293,0,0,1,.081-.217.277.277,0,0,1,.2-.081H6.316a3.691,3.691,0,0,1,2.7.836,3.559,3.559,0,0,1,.867,2.521q.012.359.012.966t-.012.979a4.809,4.809,0,0,1-.39,1.914,2.272,2.272,0,0,1-1.109,1.1,4.718,4.718,0,0,1-2.007.359Zm2.812-1.053a3.24,3.24,0,0,0,1.356-.235A1.455,1.455,0,0,0,8.4-19.71a3.711,3.711,0,0,0,.254-1.381q.025-.743.025-.929t-.025-.917a2.543,2.543,0,0,0-.582-1.79,2.485,2.485,0,0,0-1.821-.564H4.433v6.565Zm5.909,3.407a.238.238,0,0,1-.173-.074.238.238,0,0,1-.074-.173.572.572,0,0,1,.062-.223l.954-2.267-2.366-5.587a.8.8,0,0,1-.062-.211.252.252,0,0,1,.074-.186.252.252,0,0,1,.186-.074h.607a.318.318,0,0,1,.3.211l1.883,4.509L15.544-23.9a.325.325,0,0,1,.31-.211h.582a.252.252,0,0,1,.186.074.238.238,0,0,1,.074.173,1.189,1.189,0,0,1-.062.223l-3.518,8.114a.325.325,0,0,1-.31.211Zm5.5-2.354a.277.277,0,0,1-.2-.081.277.277,0,0,1-.081-.2v-5.872a.277.277,0,0,1,.081-.2.277.277,0,0,1,.2-.081h.582a.277.277,0,0,1,.2.081.277.277,0,0,1,.081.2v.545a2.516,2.516,0,0,1,.849-.706,2.686,2.686,0,0,1,1.22-.248,2.324,2.324,0,0,1,1.852.762,2.977,2.977,0,0,1,.663,2.025v3.493a.277.277,0,0,1-.081.2.277.277,0,0,1-.2.081h-.619a.277.277,0,0,1-.2-.081.277.277,0,0,1-.081-.2v-3.431a1.989,1.989,0,0,0-.427-1.363,1.559,1.559,0,0,0-1.233-.483,1.616,1.616,0,0,0-1.239.489,1.906,1.906,0,0,0-.458,1.356v3.431a.277.277,0,0,1-.081.2.277.277,0,0,1-.2.081Zm8.523.124A2.588,2.588,0,0,1,25.12-17.8a2.086,2.086,0,0,1-.824-.675,1.6,1.6,0,0,1-.3-.948,1.633,1.633,0,0,1,.675-1.344,3.776,3.776,0,0,1,1.827-.687l1.846-.26v-.359q0-1.263-1.449-1.264A1.589,1.589,0,0,0,26-23.1a1.573,1.573,0,0,0-.52.539.368.368,0,0,1-.093.161.225.225,0,0,1-.155.05H24.7a.262.262,0,0,1-.192-.081.262.262,0,0,1-.081-.192A1.316,1.316,0,0,1,24.7-23.3a2.162,2.162,0,0,1,.824-.657,3.055,3.055,0,0,1,1.375-.279,2.626,2.626,0,0,1,1.994.65,2.278,2.278,0,0,1,.607,1.617v4.013a.277.277,0,0,1-.081.2.277.277,0,0,1-.2.081h-.57a.277.277,0,0,1-.2-.081.277.277,0,0,1-.081-.2v-.533a2.141,2.141,0,0,1-.793.669A2.845,2.845,0,0,1,26.247-17.548Zm.26-.929A1.764,1.764,0,0,0,27.827-19a2.084,2.084,0,0,0,.514-1.517v-.347l-1.437.211a3.316,3.316,0,0,0-1.325.415.859.859,0,0,0-.446.737.856.856,0,0,0,.409.762A1.73,1.73,0,0,0,26.507-18.477Zm4.571.805a.277.277,0,0,1-.2-.081.277.277,0,0,1-.081-.2v-5.872a.277.277,0,0,1,.081-.2.277.277,0,0,1,.2-.081h.557a.277.277,0,0,1,.2.081.277.277,0,0,1,.081.2v.434a2.133,2.133,0,0,1,1.8-.842,2,2,0,0,1,1.945,1.14,2.2,2.2,0,0,1,.842-.83,2.438,2.438,0,0,1,1.226-.31,2.163,2.163,0,0,1,1.66.694,2.845,2.845,0,0,1,.644,2.007v3.58a.277.277,0,0,1-.081.2.277.277,0,0,1-.2.081h-.582a.277.277,0,0,1-.2-.081.277.277,0,0,1-.081-.2v-3.468a1.968,1.968,0,0,0-.4-1.387,1.4,1.4,0,0,0-1.059-.421,1.36,1.36,0,0,0-1,.427A1.913,1.913,0,0,0,36-21.425v3.468a.277.277,0,0,1-.081.2.277.277,0,0,1-.2.081h-.582a.277.277,0,0,1-.2-.081.277.277,0,0,1-.081-.2v-3.468a1.929,1.929,0,0,0-.415-1.387,1.408,1.408,0,0,0-1.047-.421,1.36,1.36,0,0,0-1,.427,1.893,1.893,0,0,0-.421,1.369v3.481a.277.277,0,0,1-.081.2.277.277,0,0,1-.2.081ZM41.5-25.315a.277.277,0,0,1-.2-.081.277.277,0,0,1-.081-.2v-.669a.3.3,0,0,1,.081-.211.267.267,0,0,1,.2-.087h.78a.287.287,0,0,1,.211.087.287.287,0,0,1,.087.211v.669a.267.267,0,0,1-.087.2.3.3,0,0,1-.211.081Zm.1,7.643a.277.277,0,0,1-.2-.081.277.277,0,0,1-.081-.2v-5.872a.277.277,0,0,1,.081-.2.277.277,0,0,1,.2-.081h.595a.277.277,0,0,1,.2.081.277.277,0,0,1,.081.2v5.872a.277.277,0,0,1-.081.2.277.277,0,0,1-.2.081Zm4.819.124a2.8,2.8,0,0,1-2.075-.749,3,3,0,0,1-.8-2.1l-.012-.5.012-.5a3,3,0,0,1,.8-2.1,2.8,2.8,0,0,1,2.075-.749,3.244,3.244,0,0,1,1.511.322,2.355,2.355,0,0,1,.923.793,1.918,1.918,0,0,1,.328.941.217.217,0,0,1-.074.2.313.313,0,0,1-.211.074H48.3a.294.294,0,0,1-.186-.05.51.51,0,0,1-.124-.2A1.621,1.621,0,0,0,47.392-23a1.716,1.716,0,0,0-.966-.254,1.6,1.6,0,0,0-1.22.477,2.175,2.175,0,0,0-.489,1.456l-.012.446.012.421A2.19,2.19,0,0,0,45.2-19a1.608,1.608,0,0,0,1.226.471,1.716,1.716,0,0,0,.966-.254,1.621,1.621,0,0,0,.595-.849.583.583,0,0,1,.124-.2.27.27,0,0,1,.186-.056h.595a.3.3,0,0,1,.211.081.233.233,0,0,1,.074.2,1.939,1.939,0,0,1-.328.935,2.342,2.342,0,0,1-.917.8A3.236,3.236,0,0,1,46.414-17.548Zm9.563,0a3.345,3.345,0,0,1-2.521-.892,3.618,3.618,0,0,1-.923-2.465q-.012-.334-.012-1.09t.012-1.115a3.609,3.609,0,0,1,.929-2.459,3.336,3.336,0,0,1,2.515-.9,4.094,4.094,0,0,1,1.871.39,2.862,2.862,0,0,1,1.164,1.022,2.774,2.774,0,0,1,.434,1.35v.025a.211.211,0,0,1-.081.167.271.271,0,0,1-.18.068H58.5q-.248,0-.31-.285a2.066,2.066,0,0,0-.756-1.307,2.523,2.523,0,0,0-1.462-.378q-2.131,0-2.2,2.366-.012.334-.012,1.028t.012,1.053q.074,2.366,2.2,2.366a2.553,2.553,0,0,0,1.468-.378,2.009,2.009,0,0,0,.749-1.307.4.4,0,0,1,.111-.223.3.3,0,0,1,.2-.062h.681a.287.287,0,0,1,.192.068.193.193,0,0,1,.068.18,2.792,2.792,0,0,1-.434,1.363,2.862,2.862,0,0,1-1.164,1.022A4.094,4.094,0,0,1,55.977-17.548Zm7.11,0a2.816,2.816,0,0,1-2.112-.768,2.976,2.976,0,0,1-.8-2.044l-.012-.533.012-.533a2.969,2.969,0,0,1,.805-2.038,2.807,2.807,0,0,1,2.106-.774,2.807,2.807,0,0,1,2.106.774A2.969,2.969,0,0,1,66-21.425q.012.136.012.533T66-20.36a2.976,2.976,0,0,1-.8,2.044A2.816,2.816,0,0,1,63.087-17.548Zm0-.954A1.586,1.586,0,0,0,64.32-19a2.177,2.177,0,0,0,.489-1.425q.012-.124.012-.471t-.012-.471a2.177,2.177,0,0,0-.489-1.425,1.586,1.586,0,0,0-1.233-.5,1.605,1.605,0,0,0-1.239.5,2.111,2.111,0,0,0-.483,1.425l-.012.471.012.471A2.111,2.111,0,0,0,61.849-19,1.605,1.605,0,0,0,63.087-18.5Zm5.983.83a.469.469,0,0,1-.458-.31L66.32-23.729l-.025-.124a.252.252,0,0,1,.074-.186.252.252,0,0,1,.186-.074h.595a.325.325,0,0,1,.31.211l1.883,4.881L71.226-23.9a.334.334,0,0,1,.3-.211h.607a.259.259,0,0,1,.18.074.242.242,0,0,1,.081.186l-.025.124-2.3,5.748a.469.469,0,0,1-.458.31Zm4.311-7.643a.277.277,0,0,1-.2-.081.277.277,0,0,1-.081-.2v-.669a.3.3,0,0,1,.081-.211.267.267,0,0,1,.2-.087h.78a.287.287,0,0,1,.211.087.287.287,0,0,1,.087.211v.669a.267.267,0,0,1-.087.2.3.3,0,0,1-.211.081Zm.1,7.643a.277.277,0,0,1-.2-.081.277.277,0,0,1-.081-.2v-5.872a.277.277,0,0,1,.081-.2.277.277,0,0,1,.2-.081h.595a.277.277,0,0,1,.2.081.277.277,0,0,1,.081.2v5.872a.277.277,0,0,1-.081.2.277.277,0,0,1-.2.081Zm4.571.124a2.315,2.315,0,0,1-1.945-.842,3.535,3.535,0,0,1-.694-2.131l-.012-.372.012-.372a3.544,3.544,0,0,1,.694-2.124,2.307,2.307,0,0,1,1.945-.849,2.44,2.44,0,0,1,2.007.9v-2.849a.277.277,0,0,1,.081-.2.277.277,0,0,1,.2-.081h.595a.277.277,0,0,1,.2.081.277.277,0,0,1,.081.2v8.225a.277.277,0,0,1-.081.2.277.277,0,0,1-.2.081H80.38a.277.277,0,0,1-.2-.081.277.277,0,0,1-.081-.2v-.52A2.432,2.432,0,0,1,78.051-17.548Zm.26-1a1.507,1.507,0,0,0,1.282-.564,2.353,2.353,0,0,0,.465-1.344q.012-.136.012-.471t-.012-.483a2.07,2.07,0,0,0-.471-1.276,1.554,1.554,0,0,0-1.276-.545,1.488,1.488,0,0,0-1.282.545,2.547,2.547,0,0,0-.44,1.437l-.012.359Q76.577-18.551,78.311-18.551Zm8.832.88a.277.277,0,0,1-.2-.081.277.277,0,0,1-.081-.2v-7.284H84.48a.277.277,0,0,1-.2-.081.277.277,0,0,1-.081-.2v-.52a.3.3,0,0,1,.081-.211.267.267,0,0,1,.2-.087h5.971a.293.293,0,0,1,.217.081.293.293,0,0,1,.08.217v.52a.267.267,0,0,1-.087.2.3.3,0,0,1-.211.081H88.085v7.284a.267.267,0,0,1-.087.2.3.3,0,0,1-.211.081Zm3.617,0a.277.277,0,0,1-.2-.081.277.277,0,0,1-.081-.2v-5.859a.3.3,0,0,1,.081-.211.267.267,0,0,1,.2-.087h.57a.287.287,0,0,1,.211.087.287.287,0,0,1,.087.211v.545a1.861,1.861,0,0,1,1.734-.842h.483a.277.277,0,0,1,.2.081.277.277,0,0,1,.081.2v.508a.257.257,0,0,1-.081.2.29.29,0,0,1-.2.074H93.1a1.41,1.41,0,0,0-1.053.39,1.444,1.444,0,0,0-.384,1.059v3.642a.267.267,0,0,1-.087.2.3.3,0,0,1-.211.081Zm5.624.124a2.588,2.588,0,0,1-1.127-.248,2.086,2.086,0,0,1-.824-.675,1.6,1.6,0,0,1-.3-.948,1.633,1.633,0,0,1,.675-1.344,3.776,3.776,0,0,1,1.827-.687l1.846-.26v-.359q0-1.263-1.449-1.264a1.589,1.589,0,0,0-.892.229,1.573,1.573,0,0,0-.52.539.368.368,0,0,1-.093.161.225.225,0,0,1-.155.05h-.533a.262.262,0,0,1-.192-.081.262.262,0,0,1-.081-.192,1.316,1.316,0,0,1,.279-.675,2.162,2.162,0,0,1,.824-.657,3.055,3.055,0,0,1,1.375-.279,2.626,2.626,0,0,1,1.994.65,2.278,2.278,0,0,1,.607,1.617v4.013a.277.277,0,0,1-.08.2.277.277,0,0,1-.2.081h-.57a.277.277,0,0,1-.2-.081.277.277,0,0,1-.081-.2v-.533a2.14,2.14,0,0,1-.793.669A2.845,2.845,0,0,1,96.385-17.548Zm.26-.929A1.764,1.764,0,0,0,97.964-19a2.084,2.084,0,0,0,.514-1.517v-.347l-1.437.211a3.316,3.316,0,0,0-1.325.415.859.859,0,0,0-.446.737.856.856,0,0,0,.409.762A1.73,1.73,0,0,0,96.645-18.477Zm6.887.929a2.8,2.8,0,0,1-2.075-.749,3,3,0,0,1-.8-2.1l-.012-.5.012-.5a3,3,0,0,1,.8-2.1,2.8,2.8,0,0,1,2.075-.749,3.244,3.244,0,0,1,1.511.322,2.355,2.355,0,0,1,.923.793,1.917,1.917,0,0,1,.328.941.217.217,0,0,1-.074.2.312.312,0,0,1-.211.074h-.595a.293.293,0,0,1-.186-.05.51.51,0,0,1-.124-.2,1.621,1.621,0,0,0-.595-.849,1.716,1.716,0,0,0-.966-.254,1.6,1.6,0,0,0-1.22.477,2.175,2.175,0,0,0-.489,1.456l-.012.446.012.421A2.19,2.19,0,0,0,102.318-19a1.608,1.608,0,0,0,1.226.471,1.716,1.716,0,0,0,.966-.254,1.621,1.621,0,0,0,.595-.849.583.583,0,0,1,.124-.2.27.27,0,0,1,.186-.056h.595a.3.3,0,0,1,.211.081.232.232,0,0,1,.074.2,1.939,1.939,0,0,1-.328.935,2.342,2.342,0,0,1-.917.8A3.236,3.236,0,0,1,103.532-17.548Zm4.038-.124a.277.277,0,0,1-.2-.081.277.277,0,0,1-.081-.2v-8.225a.277.277,0,0,1,.081-.2.277.277,0,0,1,.2-.081h.582a.277.277,0,0,1,.2.081.277.277,0,0,1,.081.2v4.311l2.44-2.032A1.545,1.545,0,0,0,111-24a.59.59,0,0,1,.167-.087.707.707,0,0,1,.2-.025h.657a.252.252,0,0,1,.186.074.252.252,0,0,1,.074.186.283.283,0,0,1-.149.235l-2.861,2.378,3.171,3.084q.149.124.149.223a.252.252,0,0,1-.074.186.252.252,0,0,1-.186.074H111.7a.687.687,0,0,1-.266-.037,1.052,1.052,0,0,1-.229-.173l-2.762-2.639v2.564a.277.277,0,0,1-.081.2.277.277,0,0,1-.2.081Zm5.785-7.643a.277.277,0,0,1-.2-.081.277.277,0,0,1-.081-.2v-.669a.3.3,0,0,1,.081-.211.267.267,0,0,1,.2-.087h.78a.287.287,0,0,1,.211.087.287.287,0,0,1,.087.211v.669a.267.267,0,0,1-.087.2.3.3,0,0,1-.211.081Zm.1,7.643a.277.277,0,0,1-.2-.081.277.277,0,0,1-.081-.2v-5.872a.277.277,0,0,1,.081-.2.277.277,0,0,1,.2-.081h.595a.277.277,0,0,1,.2.081.277.277,0,0,1,.081.2v5.872a.277.277,0,0,1-.081.2.277.277,0,0,1-.2.081Zm2.5,0a.277.277,0,0,1-.2-.081.277.277,0,0,1-.081-.2v-5.872a.277.277,0,0,1,.081-.2.277.277,0,0,1,.2-.081h.582a.277.277,0,0,1,.2.081.277.277,0,0,1,.081.2v.545a2.517,2.517,0,0,1,.849-.706,2.687,2.687,0,0,1,1.22-.248,2.324,2.324,0,0,1,1.852.762,2.977,2.977,0,0,1,.663,2.025v3.493a.277.277,0,0,1-.08.2.277.277,0,0,1-.2.081H120.5a.277.277,0,0,1-.2-.081.277.277,0,0,1-.081-.2v-3.431a1.989,1.989,0,0,0-.427-1.363,1.559,1.559,0,0,0-1.233-.483,1.616,1.616,0,0,0-1.239.489,1.906,1.906,0,0,0-.458,1.356v3.431a.277.277,0,0,1-.081.2.277.277,0,0,1-.2.081Zm9.365,2.725a3.389,3.389,0,0,1-1.635-.341,2.257,2.257,0,0,1-.879-.774,1.811,1.811,0,0,1-.285-.78.242.242,0,0,1,.081-.211.294.294,0,0,1,.2-.087h.595a.3.3,0,0,1,.186.056.413.413,0,0,1,.124.2,1.664,1.664,0,0,0,.489.688,1.606,1.606,0,0,0,1.059.291,1.975,1.975,0,0,0,1.35-.39,1.8,1.8,0,0,0,.434-1.381v-.842a2.314,2.314,0,0,1-.818.65,2.66,2.66,0,0,1-1.177.242,2.333,2.333,0,0,1-1.963-.836,3.531,3.531,0,0,1-.688-2.124l-.012-.347.012-.334a3.544,3.544,0,0,1,.694-2.124,2.321,2.321,0,0,1,1.957-.849,2.415,2.415,0,0,1,2.032.954v-.533a.3.3,0,0,1,.081-.211.267.267,0,0,1,.2-.087h.57a.287.287,0,0,1,.211.087.287.287,0,0,1,.087.211v6.008Q128.233-14.947,125.322-14.947Zm-.025-3.667a1.518,1.518,0,0,0,1.276-.557,2.283,2.283,0,0,0,.471-1.325q.012-.111.012-.434t-.012-.421a2.306,2.306,0,0,0-.465-1.325,1.514,1.514,0,0,0-1.282-.557,1.471,1.471,0,0,0-1.276.545,2.578,2.578,0,0,0-.434,1.437l-.012.322.012.334a2.588,2.588,0,0,0,.434,1.431A1.464,1.464,0,0,0,125.3-18.613Z" transform="translate(70.737 80.626)" fill="#fff"/>
        </g>
      </g>
    </g>
  </g>
</svg>
