{
  "accessors": [
    {
      "bufferView": 2,
      "componentType": 5126,
      "count": 4873,
      "max": [
        0.09330382198095322,
        0.15082986652851105,
        0.20684124529361725
      ],
      "min": [
        -0.07449998706579208,
        -0.23057079315185547,
        -0.11960870027542114
      ],
      "type": "VEC3"
    },
    {
      "bufferView": 2,
      "byteOffset": 58476,
      "componentType": 5126,
      "count": 4873,
      "max": [
        1.0,
        1.0,
        1.0
      ],
      "min": [
        -1.0,
        -1.0,
        -1.0
      ],
      "type": "VEC3"
    },
    {
      "bufferView": 3,
      "componentType": 5126,
      "count": 4873,
      "max": [
        1.0,
        1.0,
        1.0,
        1.0
      ],
      "min": [
        -1.0,
        -1.0,
        -1.0,
        -1.0
      ],
      "type": "VEC4"
    },
    {
      "bufferView": 1,
      "componentType": 5126,
      "count": 4873,
      "max": [
        0.9975842833518982,
        0.9975054264068604
      ],
      "min": [
        0.0024884939193725586,
        0.00244140625
      ],
      "type": "VEC2"
    },
    {
      "bufferView": 1,
      "byteOffset": 38984,
      "componentType": 5126,
      "count": 4873,
      "max": [
        0.9975842833518982,
        0.9975054264068604
      ],
      "min": [
        0.0024884939193725586,
        0.00244140625
      ],
      "type": "VEC2"
    },
    {
      "bufferView": 1,
      "byteOffset": 77968,
      "componentType": 5126,
      "count": 4873,
      "max": [
        0.9975842833518982,
        0.9975054264068604
      ],
      "min": [
        0.0024884939193725586,
        0.00244140625
      ],
      "type": "VEC2"
    },
    {
      "bufferView": 0,
      "componentType": 5125,
      "count": 19830,
      "type": "SCALAR"
    },
    {
      "bufferView": 2,
      "byteOffset": 116952,
      "componentType": 5126,
      "count": 92,
      "max": [
        0.05118323862552643,
        0.12738162279129028,
        0.10262767970561981
      ],
      "min": [
        -0.051183223724365234,
        0.07397694140672684,
        -0.011883563362061977
      ],
      "type": "VEC3"
    },
    {
      "bufferView": 2,
      "byteOffset": 118056,
      "componentType": 5126,
      "count": 92,
      "max": [
        0.9957303404808044,
        1.0,
        1.0
      ],
      "min": [
        -0.9957303404808044,
        -1.0,
        -1.9321427657814638e-07
      ],
      "type": "VEC3"
    },
    {
      "bufferView": 3,
      "byteOffset": 77968,
      "componentType": 5126,
      "count": 92,
      "max": [
        1.0,
        1.0,
        5.755613528890535e-06,
        1.0
      ],
      "min": [
        -1.0,
        -0.9957302808761597,
        -4.439439635461895e-06,
        1.0
      ],
      "type": "VEC4"
    },
    {
      "bufferView": 1,
      "byteOffset": 116952,
      "componentType": 5126,
      "count": 92,
      "max": [
        0.639745831489563,
        0.3249668776988983
      ],
      "min": [
        0.38275018334388733,
        0.0024946292396634817
      ],
      "type": "VEC2"
    },
    {
      "bufferView": 1,
      "byteOffset": 117688,
      "componentType": 5126,
      "count": 92,
      "max": [
        0.639745831489563,
        0.3249668776988983
      ],
      "min": [
        0.38275018334388733,
        0.0024946292396634817
      ],
      "type": "VEC2"
    },
    {
      "bufferView": 0,
      "byteOffset": 79320,
      "componentType": 5125,
      "count": 288,
      "type": "SCALAR"
    },
    {
      "bufferView": 2,
      "byteOffset": 119160,
      "componentType": 5126,
      "count": 133,
      "max": [
        0.012821376323699951,
        0.1019526869058609,
        0.0027471762150526047
      ],
      "min": [
        -0.01279979944229126,
        0.0763314962387085,
        -0.01188355591148138
      ],
      "type": "VEC3"
    },
    {
      "bufferView": 2,
      "byteOffset": 120756,
      "componentType": 5126,
      "count": 133,
      "max": [
        1.0,
        1.0,
        1.0
      ],
      "min": [
        -1.0,
        -1.0,
        -1.3698233942704974e-06
      ],
      "type": "VEC3"
    },
    {
      "bufferView": 3,
      "byteOffset": 79440,
      "componentType": 5126,
      "count": 133,
      "max": [
        1.0,
        1.0,
        1.0,
        1.0
      ],
      "min": [
        -1.0,
        -0.9807848930358887,
        -4.6656916197207465e-07,
        1.0
      ],
      "type": "VEC4"
    },
    {
      "bufferView": 1,
      "byteOffset": 118424,
      "componentType": 5126,
      "count": 133,
      "max": [
        0.9887486100196838,
        0.3330034017562866
      ],
      "min": [
        0.05726989731192589,
        0.002487040823325515
      ],
      "type": "VEC2"
    },
    {
      "bufferView": 1,
      "byteOffset": 119488,
      "componentType": 5126,
      "count": 133,
      "max": [
        0.9887486100196838,
        0.3330034017562866
      ],
      "min": [
        0.05726989731192589,
        0.002487040823325515
      ],
      "type": "VEC2"
    },
    {
      "bufferView": 0,
      "byteOffset": 80472,
      "componentType": 5125,
      "count": 408,
      "type": "SCALAR"
    },
    {
      "bufferView": 2,
      "byteOffset": 122352,
      "componentType": 5126,
      "count": 50,
      "max": [
        0.05548952519893646,
        0.1316857635974884,
        0.10262767225503922
      ],
      "min": [
        -0.05548951029777527,
        0.07035258412361145,
        -0.05420806258916855
      ],
      "type": "VEC3"
    },
    {
      "bufferView": 2,
      "byteOffset": 122952,
      "componentType": 5126,
      "count": 50,
      "max": [
        0.9978865385055542,
        1.0,
        3.1195506267067685e-07
      ],
      "min": [
        -0.997886598110199,
        0.0649803951382637,
        -8.027971176716164e-08
      ],
      "type": "VEC3"
    },
    {
      "bufferView": 3,
      "byteOffset": 81568,
      "componentType": 5126,
      "count": 50,
      "max": [
        1.0,
        0.997886598110199,
        1.0958579878206365e-05,
        1.0
      ],
      "min": [
        0.0649803951382637,
        -0.9978865385055542,
        -9.605874765838962e-06,
        1.0
      ],
      "type": "VEC4"
    },
    {
      "bufferView": 1,
      "byteOffset": 120552,
      "componentType": 5126,
      "count": 50,
      "max": [
        0.21409307420253754,
        0.6611690521240234
      ],
      "min": [
        0.002490846673026681,
        0.48191526532173157
      ],
      "type": "VEC2"
    },
    {
      "bufferView": 1,
      "byteOffset": 120952,
      "componentType": 5126,
      "count": 50,
      "max": [
        0.21409307420253754,
        0.6611690521240234
      ],
      "min": [
        0.002490846673026681,
        0.48191526532173157
      ],
      "type": "VEC2"
    },
    {
      "bufferView": 0,
      "byteOffset": 82104,
      "componentType": 5125,
      "count": 144,
      "type": "SCALAR"
    },
    {
      "bufferView": 2,
      "byteOffset": 123552,
      "componentType": 5126,
      "count": 154,
      "max": [
        0.05128202959895134,
        0.12749923765659332,
        0.07797644287347794
      ],
      "min": [
        -0.05128202959895134,
        0.07388689368963242,
        -0.011996868997812271
      ],
      "type": "VEC3"
    },
    {
      "bufferView": 2,
      "byteOffset": 125400,
      "componentType": 5126,
      "count": 154,
      "max": [
        0.9960461258888245,
        0.9999999403953552,
        0.9999823570251465
      ],
      "min": [
        -0.9960461258888245,
        -1.0,
        -1.0
      ],
      "type": "VEC3"
    },
    {
      "bufferView": 3,
      "byteOffset": 82368,
      "componentType": 5126,
      "count": 154,
      "max": [
        0.10755806416273117,
        0.00015167972014751285,
        1.0,
        1.0
      ],
      "min": [
        -1.0,
        -0.9999818205833435,
        -0.6700577735900879,
        1.0
      ],
      "type": "VEC4"
    },
    {
      "bufferView": 1,
      "byteOffset": 121352,
      "componentType": 5126,
      "count": 154,
      "max": [
        0.9906687140464783,
        0.9954812526702881
      ],
      "min": [
        0.05726991593837738,
        0.0024962120223790407
      ],
      "type": "VEC2"
    },
    {
      "bufferView": 1,
      "byteOffset": 122584,
      "componentType": 5126,
      "count": 154,
      "max": [
        0.9906687140464783,
        0.9954812526702881
      ],
      "min": [
        0.05726991593837738,
        0.0024962120223790407
      ],
      "type": "VEC2"
    },
    {
      "bufferView": 0,
      "byteOffset": 82680,
      "componentType": 5125,
      "count": 588,
      "type": "SCALAR"
    },
    {
      "bufferView": 2,
      "byteOffset": 127248,
      "componentType": 5126,
      "count": 4,
      "max": [
        1.0,
        1.0,
        0.0
      ],
      "min": [
        -1.0,
        -1.0,
        0.0
      ],
      "type": "VEC3"
    },
    {
      "bufferView": 2,
      "byteOffset": 127296,
      "componentType": 5126,
      "count": 4,
      "max": [
        0.0,
        0.0,
        1.0
      ],
      "min": [
        0.0,
        0.0,
        1.0
      ],
      "type": "VEC3"
    },
    {
      "bufferView": 1,
      "byteOffset": 123816,
      "componentType": 5126,
      "count": 4,
      "max": [
        1.0,
        1.0
      ],
      "min": [
        0.0,
        0.0
      ],
      "type": "VEC2"
    },
    {
      "bufferView": 0,
      "byteOffset": 85032,
      "componentType": 5125,
      "count": 6,
      "type": "SCALAR"
    }
  ],
  "asset": {
    "extras": {
      "author": "Stan (https://sketchfab.com/Stas_SayHallo)",
      "license": "CC-BY-4.0 (http://creativecommons.org/licenses/by/4.0/)",
      "source": "https://sketchfab.com/3d-models/red-espresso-machine-ae34f49d98f64fc5aca4a63959838c30",
      "title": "Red Espresso Machine"
    },
    "generator": "Sketchfab-13.27.0",
    "version": "2.0"
  },
  "bufferViews": [
    {
      "buffer": 0,
      "byteLength": 85056,
      "name": "floatBufferViews",
      "target": 34963
    },
    {
      "buffer": 0,
      "byteLength": 123848,
      "byteOffset": 85056,
      "byteStride": 8,
      "name": "floatBufferViews",
      "target": 34962
    },
    {
      "buffer": 0,
      "byteLength": 127344,
      "byteOffset": 208904,
      "byteStride": 12,
      "name": "floatBufferViews",
      "target": 34962
    },
    {
      "buffer": 0,
      "byteLength": 84832,
      "byteOffset": 336248,
      "byteStride": 16,
      "name": "floatBufferViews",
      "target": 34962
    }
  ],
  "buffers": [
    {
      "byteLength": 421080,
      "uri": "scene.bin"
    }
  ],
  "images": [
    {
      "uri": "textures/RedEMachine_baseColor.jpeg"
    },
    {
      "uri": "textures/RedEMachine_metallicRoughness.png"
    },
    {
      "uri": "textures/RedEMachine_normal.png"
    },
    {
      "uri": "textures/RedEMachine_transparent_metallicRoughness.png"
    },
    {
      "uri": "textures/background_baseColor.png"
    }
  ],
  "materials": [
    {
      "doubleSided": true,
      "name": "RedEMachine",
      "normalTexture": {
        "index": 2
      },
      "occlusionTexture": {
        "index": 1
      },
      "pbrMetallicRoughness": {
        "baseColorTexture": {
          "index": 0
        },
        "metallicRoughnessTexture": {
          "index": 1
        }
      }
    },
    {
      "alphaMode": "BLEND",
      "doubleSided": true,
      "name": "RedEMachine_transparent",
      "normalTexture": {
        "index": 2
      },
      "occlusionTexture": {
        "index": 3
      },
      "pbrMetallicRoughness": {
        "baseColorFactor": [
          0.0,
          0.0,
          0.0,
          0.3
        ],
        "metallicFactor": 0.0,
        "metallicRoughnessTexture": {
          "index": 3
        }
      }
    },
    {
      "alphaMode": "BLEND",
      "name": "background",
      "pbrMetallicRoughness": {
        "baseColorTexture": {
          "index": 4
        },
        "metallicFactor": 0.0
      }
    }
  ],
  "meshes": [
    {
      "name": "body_RedEMachine_0",
      "primitives": [
        {
          "attributes": {
            "NORMAL": 1,
            "POSITION": 0,
            "TANGENT": 2,
            "TEXCOORD_0": 3,
            "TEXCOORD_1": 4,
            "TEXCOORD_2": 5
          },
          "indices": 6,
          "material": 0,
          "mode": 4
        }
      ]
    },
    {
      "name": "glass_inner_RedEMachine_transparent_0",
      "primitives": [
        {
          "attributes": {
            "NORMAL": 8,
            "POSITION": 7,
            "TANGENT": 9,
            "TEXCOORD_0": 10,
            "TEXCOORD_1": 11
          },
          "indices": 12,
          "material": 1,
          "mode": 4
        }
      ]
    },
    {
      "name": "glass_inner_2_RedEMachine_transparent_0",
      "primitives": [
        {
          "attributes": {
            "NORMAL": 14,
            "POSITION": 13,
            "TANGENT": 15,
            "TEXCOORD_0": 16,
            "TEXCOORD_1": 17
          },
          "indices": 18,
          "material": 1,
          "mode": 4
        }
      ]
    },
    {
      "name": "glass_outter_RedEMachine_transparent_0",
      "primitives": [
        {
          "attributes": {
            "NORMAL": 20,
            "POSITION": 19,
            "TANGENT": 21,
            "TEXCOORD_0": 22,
            "TEXCOORD_1": 23
          },
          "indices": 24,
          "material": 1,
          "mode": 4
        }
      ]
    },
    {
      "name": "watter_RedEMachine_transparent_0",
      "primitives": [
        {
          "attributes": {
            "NORMAL": 26,
            "POSITION": 25,
            "TANGENT": 27,
            "TEXCOORD_0": 28,
            "TEXCOORD_1": 29
          },
          "indices": 30,
          "material": 1,
          "mode": 4
        }
      ]
    },
    {
      "name": "Plane.001_background_0",
      "primitives": [
        {
          "attributes": {
            "NORMAL": 32,
            "POSITION": 31,
            "TEXCOORD_0": 33
          },
          "indices": 34,
          "material": 2,
          "mode": 4
        }
      ]
    }
  ],
  "nodes": [
    {
      "children": [
        1
      ],
      "matrix": [
        1.0,
        0.0,
        0.0,
        0.0,
        0.0,
        2.220446049250313e-16,
        -1.0,
        0.0,
        0.0,
        1.0,
        2.220446049250313e-16,
        0.0,
        0.0,
        0.0,
        0.0,
        1.0
      ],
      "name": "Sketchfab_model"
    },
    {
      "children": [
        2
      ],
      "matrix": [
        0.009999999776482582,
        0.0,
        0.0,
        0.0,
        0.0,
        0.0,
        0.009999999776482582,
        0.0,
        0.0,
        -0.009999999776482582,
        0.0,
        0.0,
        0.0,
        0.0,
        0.0,
        1.0
      ],
      "name": "3d09778749414203bd6f778f8e217b20.fbx"
    },
    {
      "children": [
        3,
        5,
        7,
        9,
        11,
        13
      ],
      "name": "RootNode"
    },
    {
      "children": [
        4
      ],
      "matrix": [
        100.0,
        0.0,
        0.0,
        0.0,
        0.0,
        -1.629206793918314e-05,
        -99.99999999999868,
        0.0,
        0.0,
        99.99999999999868,
        -1.629206793918314e-05,
        0.0,
        0.0,
        11.960562705993652,
        0.0,
        1.0
      ],
      "name": "body"
    },
    {
      "mesh": 0,
      "name": "body_RedEMachine_0"
    },
    {
      "children": [
        6
      ],
      "matrix": [
        100.0,
        0.0,
        0.0,
        0.0,
        0.0,
        -1.629206793918314e-05,
        -99.99999999999868,
        0.0,
        0.0,
        99.99999999999868,
        -1.629206793918314e-05,
        0.0,
        0.0,
        11.960562705993652,
        0.0,
        1.0
      ],
      "name": "glass_inner"
    },
    {
      "mesh": 1,
      "name": "glass_inner_RedEMachine_transparent_0"
    },
    {
      "children": [
        8
      ],
      "matrix": [
        100.0,
        0.0,
        0.0,
        0.0,
        0.0,
        -1.629206793918314e-05,
        -99.99999999999868,
        0.0,
        0.0,
        99.99999999999868,
        -1.629206793918314e-05,
        0.0,
        0.0,
        11.960562705993652,
        0.0,
        1.0
      ],
      "name": "glass_inner_2"
    },
    {
      "mesh": 2,
      "name": "glass_inner_2_RedEMachine_transparent_0"
    },
    {
      "children": [
        10
      ],
      "matrix": [
        100.0,
        0.0,
        0.0,
        0.0,
        0.0,
        -1.629206793918314e-05,
        -99.99999999999868,
        0.0,
        0.0,
        99.99999999999868,
        -1.629206793918314e-05,
        0.0,
        0.0,
        11.960562705993652,
        0.0,
        1.0
      ],
      "name": "glass_outter"
    },
    {
      "mesh": 3,
      "name": "glass_outter_RedEMachine_transparent_0"
    },
    {
      "children": [
        12
      ],
      "matrix": [
        100.0,
        0.0,
        0.0,
        0.0,
        0.0,
        -1.629206793918314e-05,
        -99.99999999999868,
        0.0,
        0.0,
        99.99999999999868,
        -1.629206793918314e-05,
        0.0,
        0.0,
        11.960562705993652,
        0.0,
        1.0
      ],
      "name": "watter"
    },
    {
      "mesh": 4,
      "name": "watter_RedEMachine_transparent_0"
    },
    {
      "children": [
        14
      ],
      "matrix": [
        100.0,
        0.0,
        0.0,
        0.0,
        0.0,
        -1.629206793918314e-05,
        -99.99999999999868,
        0.0,
        0.0,
        99.99999999999868,
        -1.629206793918314e-05,
        0.0,
        0.0,
        0.0,
        0.0,
        1.0
      ],
      "name": "Plane.001"
    },
    {
      "mesh": 5,
      "name": "Plane.001_background_0"
    }
  ],
  "samplers": [
    {
      "magFilter": 9729,
      "minFilter": 9987,
      "wrapS": 10497,
      "wrapT": 10497
    }
  ],
  "scene": 0,
  "scenes": [
    {
      "name": "Sketchfab_Scene",
      "nodes": [
        0
      ]
    }
  ],
  "textures": [
    {
      "sampler": 0,
      "source": 0
    },
    {
      "sampler": 0,
      "source": 1
    },
    {
      "sampler": 0,
      "source": 2
    },
    {
      "sampler": 0,
      "source": 3
    },
    {
      "sampler": 0,
      "source": 4
    }
  ]
}
