<svg xmlns="http://www.w3.org/2000/svg" width="189.08" height="24.249" viewBox="0 0 189.08 24.249">
  <path id="Path_1252" data-name="Path 1252" d="M14.283-9v.522a3.832,3.832,0,0,0-2.56,1.4,2.8,2.8,0,0,0-.472,1.145,11.719,11.719,0,0,0-.135,2.071V7.266a8.446,8.446,0,0,1-.892,4.26,5.762,5.762,0,0,1-2.189,2.155,6.169,6.169,0,0,1-3.048.758,6.249,6.249,0,0,1-2.534-.505,4.388,4.388,0,0,1-1.81-1.389A3.189,3.189,0,0,1-.014,10.6,2.387,2.387,0,0,1,.55,8.975a1.842,1.842,0,0,1,1.457-.648,1.935,1.935,0,0,1,1.364.514,1.7,1.7,0,0,1,.556,1.305,4.969,4.969,0,0,1-.1.876l-.084.37a3.171,3.171,0,0,0-.118.775,1.349,1.349,0,0,0,.421,1.044,1.507,1.507,0,0,0,1.061.387,1.793,1.793,0,0,0,.85-.219,1.855,1.855,0,0,0,.69-.648,2.668,2.668,0,0,0,.379-.935,14.137,14.137,0,0,0,.185-2.661v-13a9.1,9.1,0,0,0-.194-2.206,2.5,2.5,0,0,0-.749-1.212,5.2,5.2,0,0,0-2.93-1.2V-9Zm-8.3.64.96.707a2.481,2.481,0,0,1,.775.733,3.951,3.951,0,0,1,.118,1.255V8.63a23.213,23.213,0,0,1-.109,2.534,3.937,3.937,0,0,1-.413,1.482,3.2,3.2,0,0,1-.892.968,4.511,4.511,0,0,0,2.492-2.257,11.17,11.17,0,0,0,.707-4.53V-5.38a.614.614,0,0,1,.008-.1,1.335,1.335,0,0,0,.008-.185v-.556a1.733,1.733,0,0,1,.185-.758,2.878,2.878,0,0,1,.724-.674l.96-.707ZM3.489,13.7a5.993,5.993,0,0,1-.9-.758,1.89,1.89,0,0,1-.429-.707,3.031,3.031,0,0,1-.118-.909,3.963,3.963,0,0,1,.084-.842q.067-.505.067-.539A.832.832,0,0,0,2,9.371a.652.652,0,0,0-.514-.219.736.736,0,0,0-.648.4,1.915,1.915,0,0,0-.244,1.019,2.781,2.781,0,0,0,.783,1.953A4.216,4.216,0,0,0,3.489,13.7ZM34.576-9l.64,6.264h-.539a8.357,8.357,0,0,0-2.6-4.269,6.994,6.994,0,0,0-4.488-1.372h-.943a4.562,4.562,0,0,0-3.124.85A3.729,3.729,0,0,0,22.6-4.69V1.035h2.24a6.67,6.67,0,0,0,3.7-.8,4.435,4.435,0,0,0,1.6-2.888h.505V5.868h-.505a7.668,7.668,0,0,0-.9-2.568,3.021,3.021,0,0,0-1.583-1.246,8.528,8.528,0,0,0-2.77-.362H22.6V8.984a8.056,8.056,0,0,0,.312,2.551,2.024,2.024,0,0,0,1.095,1.238,5.48,5.48,0,0,0,2.2.354h1.549A7.535,7.535,0,0,0,32.1,11.712,20.859,20.859,0,0,0,36.563,7.3l.135-.185h.589L35.3,13.985H15.412v-.522a3.961,3.961,0,0,0,2.644-1.4,5.574,5.574,0,0,0,.64-3.216V-3.865a10.394,10.394,0,0,0-.168-2.223A2.6,2.6,0,0,0,17.9-7.266a4.1,4.1,0,0,0-2.492-1.212V-9Zm-1.263.623H30.888a6.28,6.28,0,0,1,1.516.842,7.712,7.712,0,0,1,1.28,1.4ZM29.439.311a5.276,5.276,0,0,1-.733.6,8.128,8.128,0,0,1-1.086.48,4.461,4.461,0,0,1,1.819,1.095ZM34.1,13.126l.943-3.132q-.606.674-1.2,1.221A10.39,10.39,0,0,1,32.5,12.251a15.428,15.428,0,0,1-1.524.876Zm-16.334,0h4.917l-.657-.488a3.069,3.069,0,0,1-.733-.674,1.437,1.437,0,0,1-.16-.758q0-.269-.008-.362t-.008-.194V-5.667q0-.1.008-.2t.008-.354a1.458,1.458,0,0,1,.177-.783,2.618,2.618,0,0,1,.716-.648l.96-.707H17.466l.96.707a3.069,3.069,0,0,1,.733.674,1.437,1.437,0,0,1,.16.758q.017.286.017.556V10.651q0,.269-.017.556a1.5,1.5,0,0,1-.152.766,2.95,2.95,0,0,1-.741.665ZM56.636-9h.505L64.012,8.916l4.58-11.569a7.4,7.4,0,0,0,.623-2.627q0-2.509-3.873-3.2V-9H74.3V-8.5a6.388,6.388,0,0,0-2,1.145,8.033,8.033,0,0,0-1.642,1.962A20.672,20.672,0,0,0,69.2-2.417L62.463,14.541h-.455L55.222-3.326,48.755,14.541h-.438L41.043-3.781a17.754,17.754,0,0,0-1.238-2.6,4.543,4.543,0,0,0-1.246-1.389,4.916,4.916,0,0,0-1.709-.707V-9H47.762v.522a8.388,8.388,0,0,0-2.071.3,1.568,1.568,0,0,0-1.229,1.583,5.433,5.433,0,0,0,.421,1.836L50.153,9Zm-.152,2.257L55.575-4.2l6.736,17.665.926-2.391ZM49.378,11.089,43.383-4.522a6.489,6.489,0,0,1-.488-2,1.66,1.66,0,0,1,.269-.943,3.847,3.847,0,0,1,.943-.892H38.82A7.087,7.087,0,0,1,39.889-7.3a8.031,8.031,0,0,1,.842,1.313q.4.758.9,2.021l6.9,17.446ZM67.716-8.361a4.236,4.236,0,0,1,1.507,1.1A3.27,3.27,0,0,1,69.8-5.684,7.882,7.882,0,0,1,71.96-8.361Zm20.629-.118.977,5.608H88.75a15.467,15.467,0,0,0-.892-2.391,6.4,6.4,0,0,0-.977-1.465,6.049,6.049,0,0,0-2.063-1.5A6.1,6.1,0,0,0,82.3-8.765a4.517,4.517,0,0,0-3.031,1A3.236,3.236,0,0,0,78.09-5.178,3.466,3.466,0,0,0,79.623-2.3,11.869,11.869,0,0,0,81.315-1.28q.9.446,2.821,1.255Q85.449.5,86.359.918a15.349,15.349,0,0,1,1.465.758,11.076,11.076,0,0,1,1.111.775,6.034,6.034,0,0,1,2.341,4.934A6.312,6.312,0,0,1,90.181,11a7.383,7.383,0,0,1-3.031,2.534,9.9,9.9,0,0,1-4.294.918,17.2,17.2,0,0,1-3.772-.488,29.367,29.367,0,0,1-3.317-1.078l-.472-.168L74.79,6.34h.505a12.761,12.761,0,0,0,2.391,4.6,6.508,6.508,0,0,0,5.17,2.644A6.111,6.111,0,0,0,85.576,13a4.6,4.6,0,0,0,1.861-1.6,4.132,4.132,0,0,0,.674-2.332,4.225,4.225,0,0,0-.522-2.1,5.574,5.574,0,0,0-1.7-1.768,17.812,17.812,0,0,0-3.233-1.709q-2.981-1.3-3.621-1.65A9.306,9.306,0,0,1,77,.345a5.355,5.355,0,0,1-1.2-1.751,5.267,5.267,0,0,1-.387-2.021A5.538,5.538,0,0,1,76.3-6.475a6.15,6.15,0,0,1,2.425-2.172,7.352,7.352,0,0,1,3.41-.791,10.258,10.258,0,0,1,2.627.387l1.01.269a9.249,9.249,0,0,0,2.408.3Zm-1.28,21.049a5.832,5.832,0,0,0,2.779-4.816,5.321,5.321,0,0,0-.463-2.164A4.993,4.993,0,0,0,88.059,3.8a16.18,16.18,0,0,0-4.4-2.442q-2.61-1.111-3.393-1.5A8.576,8.576,0,0,1,78.68-1.187,4.179,4.179,0,0,1,77-4.589a4.211,4.211,0,0,1,.135-1.1,3.969,3.969,0,0,1,.4-.96,10.89,10.89,0,0,1,.893-1.238,5.171,5.171,0,0,0-2.408,4.328A4.645,4.645,0,0,0,77.972.379,12.528,12.528,0,0,0,80.33,1.76q.168.084,2.593,1.145a15.173,15.173,0,0,1,4.041,2.29,5.086,5.086,0,0,1,1.768,3.856,4.406,4.406,0,0,1-.4,1.911A5.12,5.12,0,0,1,87.066,12.571Zm-11.232-.657a16.434,16.434,0,0,0,2.829,1.229,21.72,21.72,0,0,1-1.709-1.667,14,14,0,0,1-1.322-1.852ZM114.01-9l.522,6.264h-.539a10.388,10.388,0,0,0-1.372-3A6.443,6.443,0,0,0,110.6-7.679a4.679,4.679,0,0,0-2.416-.682,3.46,3.46,0,0,0-1.726.413,2.587,2.587,0,0,0-1.086,1.137,5.4,5.4,0,0,0-.337,2.223V8.849a8.633,8.633,0,0,0,.2,2.2,2.615,2.615,0,0,0,.775,1.221,5.5,5.5,0,0,0,3,1.2v.522H97.137v-.522a5.24,5.24,0,0,0,3.2-1.381,2.6,2.6,0,0,0,.623-1.2,9.356,9.356,0,0,0,.168-2.038V-4.589a4.9,4.9,0,0,0-.455-2.425A2.479,2.479,0,0,0,99.612-8a3.536,3.536,0,0,0-1.633-.362A4.928,4.928,0,0,0,94.5-6.854a9.175,9.175,0,0,0-2.349,4.117H91.63L92.152-9Zm-1.28.623h-2.442a6.288,6.288,0,0,1,1.5.85,6.979,6.979,0,0,1,1.263,1.389Zm-12.545,21.5h4.934l-.657-.488a3.457,3.457,0,0,1-.758-.69,1.405,1.405,0,0,1-.152-.741v-.556a1.336,1.336,0,0,0-.008-.185.613.613,0,0,1-.008-.1V-5.38a.613.613,0,0,1,.008-.1,1.336,1.336,0,0,0,.008-.185v-.556a1.4,1.4,0,0,1,.185-.783,2.773,2.773,0,0,1,.724-.648l.96-.707h-5.187l.791.707a2.34,2.34,0,0,1,.573.682,1.7,1.7,0,0,1,.152.749v.556a2.6,2.6,0,0,1,.017.286V10.365a2.6,2.6,0,0,1-.017.286v.556a1.437,1.437,0,0,1-.16.758,3.069,3.069,0,0,1-.733.674Zm-7.477-21.5L92.472-5.9A10.4,10.4,0,0,1,93.7-7.452a5.98,5.98,0,0,1,1.313-.926Zm22.6,10.9a11.823,11.823,0,0,1,.943-4.665,12.189,12.189,0,0,1,2.619-3.9,11.973,11.973,0,0,1,8.512-3.511,11.72,11.72,0,0,1,6.037,1.625,12.111,12.111,0,0,1,4.4,4.4,11.764,11.764,0,0,1,1.625,6.045,11.973,11.973,0,0,1-3.519,8.5,12.26,12.26,0,0,1-3.856,2.619,11.592,11.592,0,0,1-4.631.935,11.95,11.95,0,0,1-6.1-1.617,11.961,11.961,0,0,1-4.4-4.387A11.8,11.8,0,0,1,115.307,2.517Zm4.244-.118a18,18,0,0,0,.556,4.589,11.3,11.3,0,0,0,1.591,3.6,7.235,7.235,0,0,0,2.492,2.282,6.78,6.78,0,0,0,8.26-1.5,9.526,9.526,0,0,0,2.029-3.713,17.769,17.769,0,0,0,.716-5.279,18.48,18.48,0,0,0-.547-4.681,11.1,11.1,0,0,0-1.566-3.553,7.225,7.225,0,0,0-2.459-2.257,6.616,6.616,0,0,0-3.242-.791,6.527,6.527,0,0,0-3.225.8,7.3,7.3,0,0,0-2.467,2.29,11.412,11.412,0,0,0-1.583,3.6A18.076,18.076,0,0,0,119.551,2.4ZM122.3,12.874a10.178,10.178,0,0,1-2.484-2.619,11.375,11.375,0,0,1-1.482-3.494,17.97,17.97,0,0,1-.5-4.361A14.975,14.975,0,0,1,118.9-3.57,10.449,10.449,0,0,1,122.3-7.788a12.448,12.448,0,0,0-3.427,2.627A11.135,11.135,0,0,0,116.7-1.65a11.445,11.445,0,0,0-.749,4.151,11.533,11.533,0,0,0,.749,4.151,11.287,11.287,0,0,0,2.172,3.545A12.824,12.824,0,0,0,122.3,12.874Zm9.245.017A11.317,11.317,0,0,0,137.7,2.517a12.849,12.849,0,0,0-.682-4.185,11.582,11.582,0,0,0-1.937-3.553A9.84,9.84,0,0,0,132.147-7.7q3.688,3.233,3.688,10.07a19.677,19.677,0,0,1-.362,3.831,13.863,13.863,0,0,1-1,3.191,8.406,8.406,0,0,1-.69,1.229,8.112,8.112,0,0,1-.909,1.086A15.975,15.975,0,0,1,131.541,12.891ZM147.977,1.928V8.849A9.632,9.632,0,0,0,148.153,11a2.9,2.9,0,0,0,.682,1.263,4.526,4.526,0,0,0,2.661,1.2v.522h-10.71v-.522a3.961,3.961,0,0,0,2.644-1.4,5.574,5.574,0,0,0,.64-3.216V-3.865a10.394,10.394,0,0,0-.168-2.223,2.6,2.6,0,0,0-.623-1.179,4.352,4.352,0,0,0-2.492-1.212V-9q.236.017.421.017l1.482.084q.893.051,2.071.051,1.869,0,3.385-.152l2.358-.2q1.111-.1,2.189-.1a14.254,14.254,0,0,1,3.553.4,8.059,8.059,0,0,1,2.644,1.162,5.327,5.327,0,0,1,1.667,1.861,5.151,5.151,0,0,1,.589,2.467A4.321,4.321,0,0,1,159.588.135a8.109,8.109,0,0,1-4.606,1.49,9.334,9.334,0,0,1,3.191,2.029,23.6,23.6,0,0,1,3.107,4.2A33.542,33.542,0,0,0,164.5,12.4a6.812,6.812,0,0,0,2.61,1.819v.472a15.054,15.054,0,0,1-3.124-.337,8.9,8.9,0,0,1-2.568-1.078A12.775,12.775,0,0,1,158.4,10.6a18.761,18.761,0,0,1-2.475-3.856l-.893-1.869A10.33,10.33,0,0,0,153.9,2.964a2.472,2.472,0,0,0-1.162-.817,6.148,6.148,0,0,0-1.836-.219Zm0-.674h3.014a8.749,8.749,0,0,0,3.755-.589A3.69,3.69,0,0,0,156.354-.96a5.358,5.358,0,0,0,.581-2.534,5.215,5.215,0,0,0-.682-2.661,4.7,4.7,0,0,0-1.9-1.827,5.851,5.851,0,0,0-2.787-.648,3.264,3.264,0,0,0-3.132,1.448,5.608,5.608,0,0,0-.455,2.593Zm6.567.067A8.857,8.857,0,0,0,156.607.6,5.943,5.943,0,0,0,158.148-.48a4.325,4.325,0,0,0,.935-1.381,4.1,4.1,0,0,0,.328-1.617,4.464,4.464,0,0,0-1.313-3.2,6.181,6.181,0,0,0-3.469-1.751,6.075,6.075,0,0,1,1.617,1.246,4.97,4.97,0,0,1,.994,1.642,5.7,5.7,0,0,1,.337,1.979,5.635,5.635,0,0,1-.724,3.006A5,5,0,0,1,154.544,1.322ZM165.17,14a13.659,13.659,0,0,1-1.448-.892,12.221,12.221,0,0,1-1.3-1.128,17.662,17.662,0,0,1-1.372-1.633q-.5-.69-1.642-2.576a29.194,29.194,0,0,0-1.945-2.913,9.978,9.978,0,0,0-1.743-1.785,8.438,8.438,0,0,0-1.937-1.111A8.994,8.994,0,0,1,154.9,3.326q.236.37.842,1.566l.362.69q.177.337.345.707a18,18,0,0,0,3.873,5.347A10.1,10.1,0,0,0,165.17,14Zm-22.026-.876h4.917l-.657-.488a3.069,3.069,0,0,1-.733-.674,1.437,1.437,0,0,1-.16-.758q0-.269-.008-.362t-.008-.194V-5.667q0-.1.008-.2t.008-.354a1.489,1.489,0,0,1,.143-.724,2.418,2.418,0,0,1,.631-.623l.118-.084.943-.724-.606.034q-1.532.1-2.762.1-.758,0-2.071-.051l.893.64a2.439,2.439,0,0,1,.724.648,1.517,1.517,0,0,1,.168.783q.017.286.017.556V10.651q0,.269-.017.556a1.5,1.5,0,0,1-.152.766,2.95,2.95,0,0,1-.741.665ZM186.355-9l.64,6.264h-.539a8.357,8.357,0,0,0-2.6-4.269,6.994,6.994,0,0,0-4.488-1.372h-.943a4.562,4.562,0,0,0-3.124.85,3.729,3.729,0,0,0-.918,2.837V1.035h2.24a6.67,6.67,0,0,0,3.7-.8,4.435,4.435,0,0,0,1.6-2.888h.505V5.868h-.505a7.667,7.667,0,0,0-.9-2.568,3.021,3.021,0,0,0-1.583-1.246,8.528,8.528,0,0,0-2.77-.362h-2.29V8.984a8.056,8.056,0,0,0,.312,2.551,2.024,2.024,0,0,0,1.095,1.238,5.48,5.48,0,0,0,2.2.354h1.549a7.535,7.535,0,0,0,4.345-1.415A20.859,20.859,0,0,0,188.342,7.3l.135-.185h.589l-1.987,6.871H167.191v-.522a3.961,3.961,0,0,0,2.644-1.4,5.573,5.573,0,0,0,.64-3.216V-3.865a10.394,10.394,0,0,0-.168-2.223,2.6,2.6,0,0,0-.623-1.179,4.1,4.1,0,0,0-2.492-1.212V-9Zm-1.263.623h-2.425a6.279,6.279,0,0,1,1.516.842,7.712,7.712,0,0,1,1.28,1.4ZM181.219.311a5.274,5.274,0,0,1-.733.6,8.128,8.128,0,0,1-1.086.48,4.461,4.461,0,0,1,1.819,1.095Zm4.665,12.815.943-3.132q-.606.674-1.2,1.221a10.39,10.39,0,0,1-1.347,1.036,15.429,15.429,0,0,1-1.524.876Zm-16.334,0h4.917l-.657-.488a3.069,3.069,0,0,1-.733-.674,1.437,1.437,0,0,1-.16-.758q0-.269-.008-.362t-.008-.194V-5.667q0-.1.008-.2t.008-.354a1.457,1.457,0,0,1,.177-.783,2.618,2.618,0,0,1,.716-.648l.96-.707h-5.523l.96.707a3.07,3.07,0,0,1,.733.674,1.437,1.437,0,0,1,.16.758q.017.286.017.556V10.651q0,.269-.017.556a1.5,1.5,0,0,1-.152.766,2.95,2.95,0,0,1-.741.665Z" transform="translate(0.014 9.557)" fill="#fff"/>
</svg>
